<svg width="1195" height="186" viewBox="0 0 1195 186" fill="none" xmlns="http://www.w3.org/2000/svg">
<mask id="path-1-inside-1_241_755" fill="white">
<path d="M431 0C448.087 0 463.744 6.12233 475.897 16.293C499.698 36.2115 524.476 63.5928 555.512 63.5928H1135C1168.14 63.5928 1195 90.4557 1195 123.593V166C1195 199.137 1168.14 226 1135 226H60C26.8629 226 0 199.137 0 166V63.7444C0 63.6606 0.0678673 63.5928 0.151586 63.5928C0.229996 63.5928 0.295502 63.5324 0.302743 63.4543C3.60328 27.8636 33.5473 0 70 0H431Z"/>
</mask>
<path d="M431 0C448.087 0 463.744 6.12233 475.897 16.293C499.698 36.2115 524.476 63.5928 555.512 63.5928H1135C1168.14 63.5928 1195 90.4557 1195 123.593V166C1195 199.137 1168.14 226 1135 226H60C26.8629 226 0 199.137 0 166V63.7444C0 63.6606 0.0678673 63.5928 0.151586 63.5928C0.229996 63.5928 0.295502 63.5324 0.302743 63.4543C3.60328 27.8636 33.5473 0 70 0H431Z" fill="#E9ECF3"/>
<path d="M0.302743 63.4543L2.2942 63.639L0.302743 63.4543ZM431 0V2C447.601 2 462.807 7.94606 474.614 17.8268L475.897 16.293L477.181 14.7592C464.681 4.29859 448.574 -2 431 -2V0ZM555.512 63.5928V65.5928H1135V63.5928V61.5928H555.512V63.5928ZM1195 123.593H1193V166H1195H1197V123.593H1195ZM1135 226V224H60V226V228H1135V226ZM0 166H2V63.7444H0H-2V166H0ZM0.302743 63.4543L2.2942 63.639C5.50024 29.0673 34.59 2 70 2V0V-2C32.5047 -2 1.70632 26.6599 -1.68871 63.2696L0.302743 63.4543ZM70 0V2H431V0V-2H70V0ZM0.151586 63.5928V65.5928C1.27544 65.5928 2.19272 64.7332 2.2942 63.639L0.302743 63.4543L-1.68871 63.2696C-1.60172 62.3315 -0.815443 61.5928 0.151586 61.5928V63.5928ZM0 63.7444H2C2 64.7653 1.17238 65.5928 0.151586 65.5928V63.5928V61.5928C-1.03665 61.5928 -2 62.556 -2 63.7444H0ZM60 226V224C27.9675 224 2 198.033 2 166H0H-2C-2 200.242 25.7584 228 60 228V226ZM1195 166H1193C1193 198.033 1167.03 224 1135 224V226V228C1169.24 228 1197 200.242 1197 166H1195ZM1135 63.5928V65.5928C1167.03 65.5928 1193 91.5603 1193 123.593H1195H1197C1197 89.3511 1169.24 61.5928 1135 61.5928V63.5928ZM475.897 16.293L474.614 17.8268C486.342 27.6419 498.708 39.6535 511.828 49.039C525.021 58.4772 539.388 65.5928 555.512 65.5928V63.5928V61.5928C540.6 61.5928 527.06 55.0177 514.155 45.7857C501.176 36.5009 489.253 24.8626 477.181 14.7592L475.897 16.293Z" fill="#98A6D4" mask="url(#path-1-inside-1_241_755)"/>
<path d="M192.08 57V53.8H206.2V57H192.08ZM192.08 32.2V29H206.2V32.2H192.08ZM192.08 43.4V40.2H205.4V43.4H192.08ZM190.2 29H193.6V57H190.2V29ZM221.792 38.6H225.392L219.112 47.52L225.792 57H222.192L217.392 50.04L212.592 57H208.992L215.672 47.52L209.392 38.6H212.992L217.392 45L221.792 38.6ZM231.789 65.8H228.589V38.6H231.789V65.8ZM247.189 47.8C247.189 49.7733 246.776 51.48 245.949 52.92C245.122 54.36 244.016 55.4667 242.629 56.24C241.269 57.0133 239.749 57.4 238.069 57.4C236.549 57.4 235.202 57.0133 234.029 56.24C232.882 55.4667 231.976 54.36 231.309 52.92C230.669 51.48 230.349 49.7733 230.349 47.8C230.349 45.8 230.669 44.0933 231.309 42.68C231.976 41.24 232.882 40.1333 234.029 39.36C235.202 38.5867 236.549 38.2 238.069 38.2C239.749 38.2 241.269 38.5867 242.629 39.36C244.016 40.1333 245.122 41.24 245.949 42.68C246.776 44.0933 247.189 45.8 247.189 47.8ZM243.949 47.8C243.949 46.3867 243.656 45.1867 243.069 44.2C242.509 43.2133 241.749 42.4667 240.789 41.96C239.856 41.4533 238.816 41.2 237.669 41.2C236.736 41.2 235.816 41.4533 234.909 41.96C234.002 42.4667 233.256 43.2133 232.669 44.2C232.082 45.1867 231.789 46.3867 231.789 47.8C231.789 49.2133 232.082 50.4133 232.669 51.4C233.256 52.3867 234.002 53.1333 234.909 53.64C235.816 54.1467 236.736 54.4 237.669 54.4C238.816 54.4 239.856 54.1467 240.789 53.64C241.749 53.1333 242.509 52.3867 243.069 51.4C243.656 50.4133 243.949 49.2133 243.949 47.8ZM253.042 51.32C253.042 52.0133 253.202 52.6133 253.522 53.12C253.868 53.6267 254.335 54.0133 254.922 54.28C255.535 54.52 256.228 54.64 257.002 54.64C257.988 54.64 258.868 54.44 259.642 54.04C260.442 53.64 261.068 53.08 261.522 52.36C262.002 51.6133 262.242 50.76 262.242 49.8L262.882 52.2C262.882 53.3733 262.522 54.3467 261.802 55.12C261.108 55.8933 260.242 56.4667 259.202 56.84C258.188 57.2133 257.175 57.4 256.162 57.4C255.042 57.4 253.988 57.1733 253.002 56.72C252.042 56.24 251.268 55.56 250.682 54.68C250.095 53.8 249.802 52.7333 249.802 51.48C249.802 49.6933 250.428 48.2667 251.682 47.2C252.962 46.1067 254.735 45.56 257.002 45.56C258.335 45.56 259.442 45.72 260.322 46.04C261.228 46.3333 261.948 46.68 262.482 47.08C263.015 47.4533 263.375 47.76 263.562 48V49.88C262.628 49.24 261.668 48.7867 260.682 48.52C259.695 48.2267 258.642 48.08 257.522 48.08C256.482 48.08 255.628 48.2133 254.962 48.48C254.322 48.7467 253.842 49.12 253.522 49.6C253.202 50.08 253.042 50.6533 253.042 51.32ZM252.562 42.84L251.002 40.48C251.695 39.9733 252.642 39.4667 253.842 38.96C255.068 38.4533 256.535 38.2 258.242 38.2C259.682 38.2 260.935 38.4267 262.002 38.88C263.095 39.3067 263.935 39.9333 264.522 40.76C265.135 41.5867 265.442 42.6 265.442 43.8V57H262.242V44.24C262.242 43.6 262.135 43.08 261.922 42.68C261.708 42.2533 261.402 41.92 261.002 41.68C260.628 41.44 260.188 41.2667 259.682 41.16C259.175 41.0533 258.642 41 258.082 41C257.175 41 256.348 41.1067 255.602 41.32C254.882 41.5333 254.268 41.7867 253.762 42.08C253.255 42.3733 252.855 42.6267 252.562 42.84ZM282.659 45.8C282.659 44.28 282.326 43.1333 281.659 42.36C280.993 41.5867 280.019 41.2 278.739 41.2C277.806 41.2 276.979 41.4 276.259 41.8C275.566 42.1733 275.019 42.7067 274.619 43.4C274.246 44.0933 274.059 44.8933 274.059 45.8V57H270.859V38.6H274.059V41.48C274.673 40.36 275.433 39.5333 276.339 39C277.273 38.4667 278.339 38.2 279.539 38.2C281.486 38.2 283.019 38.8533 284.139 40.16C285.286 41.44 285.859 43.1867 285.859 45.4V57H282.659V45.8ZM305.675 25.8H308.875V57H305.675V25.8ZM290.275 47.8C290.275 45.8 290.688 44.0933 291.515 42.68C292.342 41.24 293.448 40.1333 294.835 39.36C296.222 38.5867 297.742 38.2 299.395 38.2C300.942 38.2 302.288 38.5867 303.435 39.36C304.582 40.1333 305.475 41.24 306.115 42.68C306.782 44.0933 307.115 45.8 307.115 47.8C307.115 49.7733 306.782 51.48 306.115 52.92C305.475 54.36 304.582 55.4667 303.435 56.24C302.288 57.0133 300.942 57.4 299.395 57.4C297.742 57.4 296.222 57.0133 294.835 56.24C293.448 55.4667 292.342 54.36 291.515 52.92C290.688 51.48 290.275 49.7733 290.275 47.8ZM293.515 47.8C293.515 49.2133 293.795 50.4133 294.355 51.4C294.942 52.3867 295.715 53.1333 296.675 53.64C297.635 54.1467 298.675 54.4 299.795 54.4C300.728 54.4 301.648 54.1467 302.555 53.64C303.462 53.1333 304.208 52.3867 304.795 51.4C305.382 50.4133 305.675 49.2133 305.675 47.8C305.675 46.3867 305.382 45.1867 304.795 44.2C304.208 43.2133 303.462 42.4667 302.555 41.96C301.648 41.4533 300.728 41.2 299.795 41.2C298.675 41.2 297.635 41.4533 296.675 41.96C295.715 42.4667 294.942 43.2133 294.355 44.2C293.795 45.1867 293.515 46.3867 293.515 47.8Z" fill="black"/>
<g filter="url(#filter0_di_241_755)">
<rect x="34" y="97" width="467" height="73.2349" rx="18.0805" fill="#252B38"/>
</g>
<g filter="url(#filter1_f_241_755)">
<rect x="39" y="103" width="458" height="62.4297" rx="14.15" fill="url(#paint0_linear_241_755)"/>
</g>
<path d="M89.2402 120.375C89.2402 120.173 89.077 120.01 88.8757 120.01H80.1257C79.9243 120.01 79.7611 120.173 79.7611 120.375V123.292C79.7611 123.493 79.9243 123.656 80.1257 123.656H88.8757C89.077 123.656 89.2402 123.493 89.2402 123.292V120.375ZM91.4277 123.292C91.4277 124.701 90.2851 125.844 88.8757 125.844H80.1257C78.7162 125.844 77.5736 124.701 77.5736 123.292V120.375C77.5736 118.965 78.7162 117.823 80.1257 117.823H88.8757C90.2851 117.823 91.4277 118.965 91.4277 120.375V123.292Z" fill="white"/>
<path d="M71.7402 145.167V124.75C71.7402 123.686 72.1631 122.666 72.9152 121.914C73.6673 121.162 74.687 120.739 75.7507 120.739H78.6673C79.2714 120.739 79.7611 121.229 79.7611 121.833C79.7611 122.437 79.2714 122.927 78.6673 122.927H75.7507C75.2672 122.927 74.8037 123.119 74.4618 123.461C74.1199 123.803 73.9277 124.266 73.9277 124.75V145.167C73.9277 145.65 74.1199 146.114 74.4618 146.455C74.8037 146.797 75.2672 146.989 75.7507 146.989H93.2507C93.7341 146.989 94.1976 146.797 94.5395 146.455C94.8814 146.114 95.0736 145.65 95.0736 145.167V124.75C95.0736 124.266 94.8814 123.803 94.5395 123.461C94.1976 123.119 93.7341 122.927 93.2507 122.927H90.334C89.7299 122.927 89.2402 122.437 89.2402 121.833C89.2402 121.229 89.7299 120.739 90.334 120.739H93.2507C94.3143 120.739 95.334 121.162 96.0861 121.914C96.8382 122.666 97.2611 123.686 97.2611 124.75V145.167C97.2611 146.23 96.8382 147.25 96.0861 148.002C95.334 148.754 94.3143 149.177 93.2507 149.177H75.7507C74.687 149.177 73.6673 148.754 72.9152 148.002C72.1631 147.25 71.7402 146.23 71.7402 145.167Z" fill="white"/>
<path d="M88.8757 135.323C89.4797 135.323 89.9694 135.812 89.9694 136.417C89.9694 137.021 89.4797 137.51 88.8757 137.51H80.1257C79.5216 137.51 79.0319 137.021 79.0319 136.417C79.0319 135.812 79.5216 135.323 80.1257 135.323H88.8757Z" fill="white"/>
<path d="M83.4069 140.792V132.042C83.4069 131.437 83.8966 130.948 84.5007 130.948C85.1047 130.948 85.5944 131.437 85.5944 132.042V140.792C85.5944 141.396 85.1047 141.885 84.5007 141.885C83.8966 141.885 83.4069 141.396 83.4069 140.792Z" fill="white"/>
<path d="M116.2 133C116.2 135.16 116.68 137.067 117.64 138.72C118.627 140.373 119.907 141.667 121.48 142.6C123.053 143.533 124.76 144 126.6 144C127.933 144 129.147 143.827 130.24 143.48C131.36 143.133 132.373 142.653 133.28 142.04C134.187 141.4 134.96 140.667 135.6 139.84V144.32C134.427 145.36 133.147 146.133 131.76 146.64C130.373 147.147 128.653 147.4 126.6 147.4C124.653 147.4 122.827 147.053 121.12 146.36C119.44 145.64 117.96 144.64 116.68 143.36C115.4 142.053 114.4 140.52 113.68 138.76C112.96 137 112.6 135.08 112.6 133C112.6 130.92 112.96 129 113.68 127.24C114.4 125.48 115.4 123.96 116.68 122.68C117.96 121.373 119.44 120.373 121.12 119.68C122.827 118.96 124.653 118.6 126.6 118.6C128.653 118.6 130.373 118.853 131.76 119.36C133.147 119.867 134.427 120.64 135.6 121.68V126.16C134.96 125.333 134.187 124.613 133.28 124C132.373 123.36 131.36 122.867 130.24 122.52C129.147 122.173 127.933 122 126.6 122C124.76 122 123.053 122.467 121.48 123.4C119.907 124.333 118.627 125.627 117.64 127.28C116.68 128.907 116.2 130.813 116.2 133ZM144.583 128.6V147H141.383V128.6H144.583ZM150.143 132.12C149.716 131.8 149.329 131.573 148.983 131.44C148.636 131.28 148.196 131.2 147.663 131.2C146.863 131.2 146.236 131.4 145.783 131.8C145.329 132.2 145.009 132.747 144.823 133.44C144.663 134.133 144.583 134.92 144.583 135.8H143.143C143.143 134.333 143.396 133.04 143.903 131.92C144.436 130.773 145.116 129.867 145.943 129.2C146.769 128.533 147.609 128.2 148.463 128.2C149.129 128.2 149.743 128.293 150.303 128.48C150.889 128.64 151.423 128.973 151.903 129.48L150.143 132.12ZM161.628 147.4C159.921 147.4 158.401 147 157.068 146.2C155.761 145.373 154.734 144.24 153.988 142.8C153.268 141.36 152.908 139.693 152.908 137.8C152.908 135.88 153.281 134.2 154.028 132.76C154.801 131.32 155.868 130.2 157.228 129.4C158.614 128.6 160.214 128.2 162.028 128.2C163.841 128.2 165.388 128.587 166.668 129.36C167.974 130.107 168.974 131.187 169.668 132.6C170.361 134.013 170.708 135.693 170.708 137.64C170.708 137.827 170.694 138.027 170.668 138.24C170.668 138.427 170.668 138.547 170.668 138.6H154.948V135.88H168.148L166.868 137.72C166.948 137.587 167.028 137.387 167.108 137.12C167.188 136.827 167.228 136.587 167.228 136.4C167.228 135.307 167.001 134.36 166.548 133.56C166.121 132.76 165.521 132.133 164.748 131.68C163.974 131.227 163.068 131 162.028 131C160.801 131 159.748 131.267 158.868 131.8C158.014 132.307 157.348 133.053 156.868 134.04C156.414 135 156.174 136.187 156.148 137.6C156.148 139.04 156.374 140.267 156.828 141.28C157.281 142.293 157.948 143.067 158.828 143.6C159.708 144.133 160.774 144.4 162.028 144.4C163.281 144.4 164.388 144.133 165.348 143.6C166.308 143.04 167.121 142.2 167.788 141.08L170.388 142.72C169.428 144.267 168.214 145.44 166.748 146.24C165.308 147.013 163.601 147.4 161.628 147.4ZM176.534 141.32C176.534 142.013 176.694 142.613 177.014 143.12C177.36 143.627 177.827 144.013 178.414 144.28C179.027 144.52 179.72 144.64 180.494 144.64C181.48 144.64 182.36 144.44 183.134 144.04C183.934 143.64 184.56 143.08 185.014 142.36C185.494 141.613 185.734 140.76 185.734 139.8L186.374 142.2C186.374 143.373 186.014 144.347 185.294 145.12C184.6 145.893 183.734 146.467 182.694 146.84C181.68 147.213 180.667 147.4 179.654 147.4C178.534 147.4 177.48 147.173 176.494 146.72C175.534 146.24 174.76 145.56 174.174 144.68C173.587 143.8 173.294 142.733 173.294 141.48C173.294 139.693 173.92 138.267 175.174 137.2C176.454 136.107 178.227 135.56 180.494 135.56C181.827 135.56 182.934 135.72 183.814 136.04C184.72 136.333 185.44 136.68 185.974 137.08C186.507 137.453 186.867 137.76 187.054 138V139.88C186.12 139.24 185.16 138.787 184.174 138.52C183.187 138.227 182.134 138.08 181.014 138.08C179.974 138.08 179.12 138.213 178.454 138.48C177.814 138.747 177.334 139.12 177.014 139.6C176.694 140.08 176.534 140.653 176.534 141.32ZM176.054 132.84L174.494 130.48C175.187 129.973 176.134 129.467 177.334 128.96C178.56 128.453 180.027 128.2 181.734 128.2C183.174 128.2 184.427 128.427 185.494 128.88C186.587 129.307 187.427 129.933 188.014 130.76C188.627 131.587 188.934 132.6 188.934 133.8V147H185.734V134.24C185.734 133.6 185.627 133.08 185.414 132.68C185.2 132.253 184.894 131.92 184.494 131.68C184.12 131.44 183.68 131.267 183.174 131.16C182.667 131.053 182.134 131 181.574 131C180.667 131 179.84 131.107 179.094 131.32C178.374 131.533 177.76 131.787 177.254 132.08C176.747 132.373 176.347 132.627 176.054 132.84ZM191.552 128.6H200.752V131.6H191.552V128.6ZM194.552 122.2H197.752V147H194.552V122.2ZM211.081 147.4C209.374 147.4 207.854 147 206.521 146.2C205.214 145.373 204.188 144.24 203.441 142.8C202.721 141.36 202.361 139.693 202.361 137.8C202.361 135.88 202.734 134.2 203.481 132.76C204.254 131.32 205.321 130.2 206.681 129.4C208.068 128.6 209.668 128.2 211.481 128.2C213.294 128.2 214.841 128.587 216.121 129.36C217.428 130.107 218.428 131.187 219.121 132.6C219.814 134.013 220.161 135.693 220.161 137.64C220.161 137.827 220.148 138.027 220.121 138.24C220.121 138.427 220.121 138.547 220.121 138.6H204.401V135.88H217.601L216.321 137.72C216.401 137.587 216.481 137.387 216.561 137.12C216.641 136.827 216.681 136.587 216.681 136.4C216.681 135.307 216.454 134.36 216.001 133.56C215.574 132.76 214.974 132.133 214.201 131.68C213.428 131.227 212.521 131 211.481 131C210.254 131 209.201 131.267 208.321 131.8C207.468 132.307 206.801 133.053 206.321 134.04C205.868 135 205.628 136.187 205.601 137.6C205.601 139.04 205.828 140.267 206.281 141.28C206.734 142.293 207.401 143.067 208.281 143.6C209.161 144.133 210.228 144.4 211.481 144.4C212.734 144.4 213.841 144.133 214.801 143.6C215.761 143.04 216.574 142.2 217.241 141.08L219.841 142.72C218.881 144.267 217.668 145.44 216.201 146.24C214.761 147.013 213.054 147.4 211.081 147.4ZM237.979 141.32C237.979 142.013 238.139 142.613 238.459 143.12C238.806 143.627 239.272 144.013 239.859 144.28C240.472 144.52 241.166 144.64 241.939 144.64C242.926 144.64 243.806 144.44 244.579 144.04C245.379 143.64 246.006 143.08 246.459 142.36C246.939 141.613 247.179 140.76 247.179 139.8L247.819 142.2C247.819 143.373 247.459 144.347 246.739 145.12C246.046 145.893 245.179 146.467 244.139 146.84C243.126 147.213 242.112 147.4 241.099 147.4C239.979 147.4 238.926 147.173 237.939 146.72C236.979 146.24 236.206 145.56 235.619 144.68C235.032 143.8 234.739 142.733 234.739 141.48C234.739 139.693 235.366 138.267 236.619 137.2C237.899 136.107 239.672 135.56 241.939 135.56C243.272 135.56 244.379 135.72 245.259 136.04C246.166 136.333 246.886 136.68 247.419 137.08C247.952 137.453 248.312 137.76 248.499 138V139.88C247.566 139.24 246.606 138.787 245.619 138.52C244.632 138.227 243.579 138.08 242.459 138.08C241.419 138.08 240.566 138.213 239.899 138.48C239.259 138.747 238.779 139.12 238.459 139.6C238.139 140.08 237.979 140.653 237.979 141.32ZM237.499 132.84L235.939 130.48C236.632 129.973 237.579 129.467 238.779 128.96C240.006 128.453 241.472 128.2 243.179 128.2C244.619 128.2 245.872 128.427 246.939 128.88C248.032 129.307 248.872 129.933 249.459 130.76C250.072 131.587 250.379 132.6 250.379 133.8V147H247.179V134.24C247.179 133.6 247.072 133.08 246.859 132.68C246.646 132.253 246.339 131.92 245.939 131.68C245.566 131.44 245.126 131.267 244.619 131.16C244.112 131.053 243.579 131 243.019 131C242.112 131 241.286 131.107 240.539 131.32C239.819 131.533 239.206 131.787 238.699 132.08C238.192 132.373 237.792 132.627 237.499 132.84ZM292.909 139.6L300.189 119H303.989L292.989 148.4L284.589 126.64L276.189 148.4L265.189 119H268.989L276.429 139.6L284.589 117.6L292.909 139.6ZM302.595 137.8C302.595 135.933 303.009 134.28 303.835 132.84C304.689 131.4 305.835 130.267 307.275 129.44C308.715 128.613 310.329 128.2 312.115 128.2C313.929 128.2 315.542 128.613 316.955 129.44C318.395 130.267 319.529 131.4 320.355 132.84C321.209 134.28 321.635 135.933 321.635 137.8C321.635 139.64 321.209 141.293 320.355 142.76C319.529 144.2 318.395 145.333 316.955 146.16C315.542 146.987 313.929 147.4 312.115 147.4C310.329 147.4 308.715 146.987 307.275 146.16C305.835 145.333 304.689 144.2 303.835 142.76C303.009 141.293 302.595 139.64 302.595 137.8ZM305.835 137.8C305.835 139.08 306.102 140.213 306.635 141.2C307.195 142.187 307.942 142.973 308.875 143.56C309.835 144.12 310.915 144.4 312.115 144.4C313.315 144.4 314.382 144.12 315.315 143.56C316.275 142.973 317.022 142.187 317.555 141.2C318.115 140.213 318.395 139.08 318.395 137.8C318.395 136.52 318.115 135.387 317.555 134.4C317.022 133.387 316.275 132.6 315.315 132.04C314.382 131.48 313.315 131.2 312.115 131.2C310.915 131.2 309.835 131.48 308.875 132.04C307.942 132.6 307.195 133.387 306.635 134.4C306.102 135.387 305.835 136.52 305.835 137.8ZM329.231 128.6V147H326.031V128.6H329.231ZM334.791 132.12C334.365 131.8 333.978 131.573 333.631 131.44C333.285 131.28 332.845 131.2 332.311 131.2C331.511 131.2 330.885 131.4 330.431 131.8C329.978 132.2 329.658 132.747 329.471 133.44C329.311 134.133 329.231 134.92 329.231 135.8H327.791C327.791 134.333 328.045 133.04 328.551 131.92C329.085 130.773 329.765 129.867 330.591 129.2C331.418 128.533 332.258 128.2 333.111 128.2C333.778 128.2 334.391 128.293 334.951 128.48C335.538 128.64 336.071 128.973 336.551 129.48L334.791 132.12ZM339.542 115.8H342.742V147H339.542V115.8ZM349.542 128.6H353.542L345.542 136.2L354.342 147H350.342L341.542 136.2L349.542 128.6ZM371.552 133C371.552 135.107 372.005 136.987 372.912 138.64C373.845 140.293 375.112 141.6 376.712 142.56C378.312 143.52 380.125 144 382.152 144C384.205 144 386.018 143.52 387.592 142.56C389.192 141.6 390.445 140.293 391.352 138.64C392.285 136.987 392.752 135.107 392.752 133C392.752 130.893 392.285 129.013 391.352 127.36C390.445 125.707 389.192 124.4 387.592 123.44C386.018 122.48 384.205 122 382.152 122C380.125 122 378.312 122.48 376.712 123.44C375.112 124.4 373.845 125.707 372.912 127.36C372.005 129.013 371.552 130.893 371.552 133ZM367.952 133C367.952 130.947 368.298 129.053 368.992 127.32C369.712 125.56 370.712 124.04 371.992 122.76C373.272 121.453 374.778 120.44 376.512 119.72C378.245 118.973 380.125 118.6 382.152 118.6C384.205 118.6 386.085 118.973 387.792 119.72C389.525 120.44 391.032 121.453 392.312 122.76C393.592 124.04 394.578 125.56 395.272 127.32C395.992 129.053 396.352 130.947 396.352 133C396.352 135.027 395.992 136.92 395.272 138.68C394.578 140.44 393.592 141.973 392.312 143.28C391.032 144.56 389.525 145.573 387.792 146.32C386.085 147.04 384.205 147.4 382.152 147.4C380.125 147.4 378.245 147.04 376.512 146.32C374.778 145.573 373.272 144.56 371.992 143.28C370.712 141.973 369.712 140.44 368.992 138.68C368.298 136.92 367.952 135.027 367.952 133ZM404.153 128.6V147H400.953V128.6H404.153ZM409.713 132.12C409.286 131.8 408.9 131.573 408.553 131.44C408.206 131.28 407.766 131.2 407.233 131.2C406.433 131.2 405.806 131.4 405.353 131.8C404.9 132.2 404.58 132.747 404.393 133.44C404.233 134.133 404.153 134.92 404.153 135.8H402.713C402.713 134.333 402.966 133.04 403.473 131.92C404.006 130.773 404.686 129.867 405.513 129.2C406.34 128.533 407.18 128.2 408.033 128.2C408.7 128.2 409.313 128.293 409.873 128.48C410.46 128.64 410.993 128.973 411.473 129.48L409.713 132.12ZM428.464 115.8H431.664V147H428.464V115.8ZM413.064 137.8C413.064 135.8 413.477 134.093 414.304 132.68C415.131 131.24 416.237 130.133 417.624 129.36C419.011 128.587 420.531 128.2 422.184 128.2C423.731 128.2 425.077 128.587 426.224 129.36C427.371 130.133 428.264 131.24 428.904 132.68C429.571 134.093 429.904 135.8 429.904 137.8C429.904 139.773 429.571 141.48 428.904 142.92C428.264 144.36 427.371 145.467 426.224 146.24C425.077 147.013 423.731 147.4 422.184 147.4C420.531 147.4 419.011 147.013 417.624 146.24C416.237 145.467 415.131 144.36 414.304 142.92C413.477 141.48 413.064 139.773 413.064 137.8ZM416.304 137.8C416.304 139.213 416.584 140.413 417.144 141.4C417.731 142.387 418.504 143.133 419.464 143.64C420.424 144.147 421.464 144.4 422.584 144.4C423.517 144.4 424.437 144.147 425.344 143.64C426.251 143.133 426.997 142.387 427.584 141.4C428.171 140.413 428.464 139.213 428.464 137.8C428.464 136.387 428.171 135.187 427.584 134.2C426.997 133.213 426.251 132.467 425.344 131.96C424.437 131.453 423.517 131.2 422.584 131.2C421.464 131.2 420.424 131.453 419.464 131.96C418.504 132.467 417.731 133.213 417.144 134.2C416.584 135.187 416.304 136.387 416.304 137.8ZM444.597 147.4C442.89 147.4 441.37 147 440.037 146.2C438.73 145.373 437.703 144.24 436.957 142.8C436.237 141.36 435.877 139.693 435.877 137.8C435.877 135.88 436.25 134.2 436.997 132.76C437.77 131.32 438.837 130.2 440.197 129.4C441.583 128.6 443.183 128.2 444.997 128.2C446.81 128.2 448.357 128.587 449.637 129.36C450.943 130.107 451.943 131.187 452.637 132.6C453.33 134.013 453.677 135.693 453.677 137.64C453.677 137.827 453.663 138.027 453.637 138.24C453.637 138.427 453.637 138.547 453.637 138.6H437.917V135.88H451.117L449.837 137.72C449.917 137.587 449.997 137.387 450.077 137.12C450.157 136.827 450.197 136.587 450.197 136.4C450.197 135.307 449.97 134.36 449.517 133.56C449.09 132.76 448.49 132.133 447.717 131.68C446.943 131.227 446.037 131 444.997 131C443.77 131 442.717 131.267 441.837 131.8C440.983 132.307 440.317 133.053 439.837 134.04C439.383 135 439.143 136.187 439.117 137.6C439.117 139.04 439.343 140.267 439.797 141.28C440.25 142.293 440.917 143.067 441.797 143.6C442.677 144.133 443.743 144.4 444.997 144.4C446.25 144.4 447.357 144.133 448.317 143.6C449.277 143.04 450.09 142.2 450.757 141.08L453.357 142.72C452.397 144.267 451.183 145.44 449.717 146.24C448.277 147.013 446.57 147.4 444.597 147.4ZM461.263 128.6V147H458.063V128.6H461.263ZM466.822 132.12C466.396 131.8 466.009 131.573 465.663 131.44C465.316 131.28 464.876 131.2 464.343 131.2C463.543 131.2 462.916 131.4 462.463 131.8C462.009 132.2 461.689 132.747 461.503 133.44C461.343 134.133 461.263 134.92 461.263 135.8H459.823C459.823 134.333 460.076 133.04 460.583 131.92C461.116 130.773 461.796 129.867 462.623 129.2C463.449 128.533 464.289 128.2 465.143 128.2C465.809 128.2 466.423 128.293 466.983 128.48C467.569 128.64 468.103 128.973 468.583 129.48L466.822 132.12Z" fill="white"/>
<path d="M635 103.5C635 105.755 634.104 107.917 632.51 109.511C630.916 111.105 628.754 112 626.5 112C624.245 112 622.084 111.104 620.49 109.51C618.896 107.916 618 105.754 618 103.5C618 101.246 618.896 99.0837 620.49 97.4897C622.084 95.8956 624.245 95.0001 626.5 95C628.754 94.9999 630.916 95.8954 632.51 97.4894C634.104 99.0833 635 101.246 635 103.5Z" fill="#60BC8E"/>
<path d="M888 103.5C888 105.755 887.104 107.917 885.51 109.511C883.916 111.105 881.754 112 879.5 112C877.245 112 875.084 111.104 873.49 109.51C871.896 107.916 871 105.754 871 103.5C871 101.246 871.896 99.0837 873.49 97.4897C875.084 95.8956 877.245 95.0001 879.5 95C881.754 94.9999 883.916 95.8954 885.51 97.4894C887.104 99.0833 888 101.246 888 103.5Z" fill="#5F56B0"/>
<path d="M888 147.5C888 149.755 887.104 151.917 885.51 153.511C883.916 155.105 881.754 156 879.5 156C877.245 156 875.084 155.104 873.49 153.51C871.896 151.916 871 149.754 871 147.5C871 145.246 871.896 143.084 873.49 141.49C875.084 139.896 877.245 139 879.5 139C881.754 139 883.916 139.895 885.51 141.489C887.104 143.083 888 145.246 888 147.5Z" fill="#A538A9"/>
<path d="M635 147.5C635 149.755 634.104 151.917 632.51 153.511C630.916 155.105 628.754 156 626.5 156C624.245 156 622.084 155.104 620.49 153.51C618.896 151.916 618 149.754 618 147.5C618 145.246 618.896 143.084 620.49 141.49C622.084 139.896 624.245 139 626.5 139C628.754 139 630.916 139.895 632.51 141.489C634.104 143.083 635 145.246 635 147.5Z" fill="#609FBC"/>
<path d="M645.761 110V95.4545H647.523V101.932H655.278V95.4545H657.04V110H655.278V103.494H647.523V110H645.761ZM664.913 110.227C663.862 110.227 662.955 109.995 662.192 109.531C661.435 109.062 660.85 108.409 660.438 107.571C660.031 106.728 659.827 105.748 659.827 104.631C659.827 103.513 660.031 102.528 660.438 101.676C660.85 100.819 661.423 100.152 662.157 99.6733C662.896 99.1903 663.757 98.9489 664.742 98.9489C665.31 98.9489 665.871 99.0436 666.425 99.233C666.979 99.4223 667.484 99.7301 667.938 100.156C668.393 100.578 668.755 101.136 669.025 101.832C669.295 102.528 669.43 103.385 669.43 104.403V105.114H661.021V103.665H667.725C667.725 103.049 667.602 102.5 667.356 102.017C667.114 101.534 666.769 101.153 666.319 100.874C665.874 100.594 665.348 100.455 664.742 100.455C664.075 100.455 663.497 100.62 663.009 100.952C662.526 101.278 662.155 101.705 661.894 102.23C661.634 102.756 661.504 103.319 661.504 103.92V104.886C661.504 105.71 661.646 106.409 661.93 106.982C662.219 107.55 662.619 107.983 663.13 108.281C663.641 108.575 664.236 108.722 664.913 108.722C665.353 108.722 665.751 108.66 666.106 108.537C666.466 108.409 666.776 108.22 667.036 107.969C667.297 107.713 667.498 107.396 667.64 107.017L669.259 107.472C669.089 108.021 668.802 108.504 668.4 108.92C667.997 109.332 667.5 109.654 666.908 109.886C666.317 110.114 665.651 110.227 664.913 110.227ZM675.19 110.256C674.498 110.256 673.871 110.125 673.308 109.865C672.744 109.6 672.297 109.219 671.965 108.722C671.634 108.22 671.468 107.614 671.468 106.903C671.468 106.278 671.591 105.772 671.837 105.384C672.084 104.991 672.413 104.683 672.825 104.46C673.237 104.238 673.691 104.072 674.188 103.963C674.69 103.849 675.194 103.759 675.701 103.693C676.364 103.608 676.901 103.544 677.313 103.501C677.73 103.454 678.033 103.376 678.222 103.267C678.416 103.158 678.513 102.969 678.513 102.699V102.642C678.513 101.941 678.322 101.397 677.938 101.009C677.559 100.62 676.984 100.426 676.212 100.426C675.412 100.426 674.785 100.601 674.33 100.952C673.876 101.302 673.556 101.676 673.371 102.074L671.781 101.506C672.065 100.843 672.443 100.327 672.917 99.9574C673.395 99.5833 673.916 99.3229 674.479 99.1761C675.048 99.0246 675.606 98.9489 676.156 98.9489C676.506 98.9489 676.908 98.9915 677.363 99.0767C677.822 99.1572 678.265 99.3253 678.691 99.581C679.122 99.8366 679.479 100.223 679.763 100.739C680.048 101.255 680.19 101.946 680.19 102.812V110H678.513V108.523H678.428C678.315 108.759 678.125 109.013 677.86 109.283C677.595 109.553 677.242 109.782 676.802 109.972C676.362 110.161 675.824 110.256 675.19 110.256ZM675.445 108.75C676.108 108.75 676.667 108.62 677.121 108.359C677.581 108.099 677.926 107.763 678.158 107.351C678.395 106.939 678.513 106.506 678.513 106.051V104.517C678.442 104.602 678.286 104.68 678.045 104.751C677.808 104.818 677.533 104.877 677.221 104.929C676.913 104.976 676.612 105.019 676.319 105.057C676.03 105.09 675.796 105.118 675.616 105.142C675.18 105.199 674.773 105.291 674.394 105.419C674.02 105.542 673.717 105.729 673.485 105.98C673.258 106.226 673.144 106.562 673.144 106.989C673.144 107.571 673.36 108.011 673.79 108.31C674.226 108.603 674.778 108.75 675.445 108.75ZM684.925 95.4545V110H683.249V95.4545H684.925ZM692.739 99.0909V100.511H687.086V99.0909H692.739ZM688.734 96.4773H690.41V106.875C690.41 107.348 690.478 107.704 690.616 107.94C690.758 108.172 690.938 108.329 691.156 108.409C691.378 108.485 691.612 108.523 691.859 108.523C692.043 108.523 692.195 108.513 692.313 108.494C692.432 108.471 692.526 108.452 692.597 108.438L692.938 109.943C692.825 109.986 692.666 110.028 692.462 110.071C692.259 110.118 692.001 110.142 691.688 110.142C691.215 110.142 690.751 110.04 690.296 109.837C689.846 109.633 689.472 109.323 689.174 108.906C688.88 108.49 688.734 107.964 688.734 107.33V96.4773ZM697.171 103.438V110H695.495V95.4545H697.171V100.795H697.313C697.569 100.232 697.952 99.7846 698.464 99.4531C698.98 99.117 699.666 98.9489 700.523 98.9489C701.267 98.9489 701.918 99.098 702.477 99.3963C703.035 99.6899 703.469 100.142 703.776 100.753C704.089 101.359 704.245 102.131 704.245 103.068V110H702.569V103.182C702.569 102.315 702.344 101.645 701.894 101.172C701.449 100.694 700.831 100.455 700.04 100.455C699.491 100.455 698.999 100.571 698.563 100.803C698.132 101.035 697.791 101.373 697.54 101.818C697.294 102.263 697.171 102.803 697.171 103.438ZM717.539 95.2557C718.135 95.2604 718.732 95.3741 719.328 95.5966C719.925 95.8191 720.47 96.1884 720.962 96.7045C721.454 97.2159 721.85 97.9143 722.148 98.7997C722.446 99.6851 722.596 100.795 722.596 102.131C722.596 103.423 722.472 104.571 722.226 105.575C721.985 106.574 721.634 107.417 721.175 108.104C720.721 108.79 720.167 109.311 719.513 109.666C718.864 110.021 718.131 110.199 717.311 110.199C716.497 110.199 715.77 110.038 715.131 109.716C714.497 109.389 713.976 108.937 713.569 108.359C713.166 107.777 712.908 107.102 712.794 106.335H714.527C714.684 107.003 714.994 107.554 715.458 107.99C715.926 108.421 716.544 108.636 717.311 108.636C718.434 108.636 719.319 108.146 719.968 107.166C720.621 106.186 720.948 104.801 720.948 103.011H720.834C720.569 103.409 720.254 103.752 719.89 104.041C719.525 104.33 719.12 104.553 718.675 104.709C718.23 104.865 717.757 104.943 717.255 104.943C716.421 104.943 715.657 104.737 714.961 104.325C714.269 103.909 713.715 103.338 713.299 102.614C712.887 101.884 712.681 101.051 712.681 100.114C712.681 99.2235 712.88 98.4091 713.277 97.6705C713.68 96.9271 714.243 96.3352 714.968 95.8949C715.697 95.4545 716.554 95.2415 717.539 95.2557ZM717.539 96.8182C716.942 96.8182 716.405 96.9673 715.926 97.2656C715.453 97.5592 715.077 97.9569 714.797 98.4588C714.523 98.956 714.385 99.5076 714.385 100.114C714.385 100.72 714.518 101.271 714.783 101.768C715.053 102.261 715.42 102.654 715.884 102.947C716.353 103.236 716.885 103.381 717.482 103.381C717.932 103.381 718.351 103.293 718.739 103.118C719.127 102.938 719.466 102.694 719.755 102.386C720.048 102.074 720.278 101.721 720.444 101.328C720.609 100.93 720.692 100.516 720.692 100.085C720.692 99.517 720.555 98.9844 720.28 98.4872C720.01 97.9901 719.636 97.5876 719.158 97.2798C718.685 96.9721 718.145 96.8182 717.539 96.8182ZM725.388 110V108.722L730.19 103.466C730.753 102.85 731.217 102.315 731.582 101.861C731.946 101.402 732.216 100.971 732.391 100.568C732.571 100.161 732.661 99.7348 732.661 99.2898C732.661 98.7784 732.538 98.3357 732.292 97.9616C732.05 97.5876 731.719 97.2988 731.298 97.0952C730.876 96.8916 730.403 96.7898 729.877 96.7898C729.318 96.7898 728.831 96.9058 728.414 97.1378C728.002 97.3651 727.683 97.6847 727.455 98.0966C727.233 98.5085 727.121 98.9915 727.121 99.5455H725.445C725.445 98.6932 725.642 97.9451 726.035 97.3011C726.428 96.6572 726.963 96.1553 727.64 95.7955C728.322 95.4356 729.086 95.2557 729.934 95.2557C730.786 95.2557 731.541 95.4356 732.2 95.7955C732.858 96.1553 733.374 96.6406 733.748 97.2514C734.122 97.8622 734.309 98.5417 734.309 99.2898C734.309 99.8248 734.212 100.348 734.018 100.859C733.828 101.366 733.497 101.932 733.023 102.557C732.555 103.177 731.904 103.935 731.07 104.83L727.803 108.324V108.438H734.565V110H725.388ZM744.913 107.273V106.506C744.913 105.975 745.022 105.49 745.239 105.05C745.462 104.605 745.784 104.25 746.205 103.984C746.631 103.714 747.147 103.58 747.754 103.58C748.369 103.58 748.885 103.714 749.302 103.984C749.719 104.25 750.033 104.605 750.246 105.05C750.46 105.49 750.566 105.975 750.566 106.506V107.273C750.566 107.803 750.457 108.291 750.239 108.736C750.026 109.176 749.709 109.531 749.288 109.801C748.871 110.066 748.36 110.199 747.754 110.199C747.138 110.199 746.62 110.066 746.198 109.801C745.777 109.531 745.457 109.176 745.239 108.736C745.022 108.291 744.913 107.803 744.913 107.273ZM746.362 106.506V107.273C746.362 107.713 746.466 108.108 746.674 108.459C746.882 108.804 747.242 108.977 747.754 108.977C748.251 108.977 748.601 108.804 748.805 108.459C749.013 108.108 749.117 107.713 749.117 107.273V106.506C749.117 106.065 749.018 105.672 748.819 105.327C748.62 104.976 748.265 104.801 747.754 104.801C747.256 104.801 746.899 104.976 746.681 105.327C746.468 105.672 746.362 106.065 746.362 106.506ZM737.668 98.9489V98.1818C737.668 97.6515 737.777 97.1662 737.995 96.7259C738.218 96.2808 738.54 95.9257 738.961 95.6605C739.387 95.3906 739.903 95.2557 740.509 95.2557C741.125 95.2557 741.641 95.3906 742.058 95.6605C742.474 95.9257 742.789 96.2808 743.002 96.7259C743.215 97.1662 743.322 97.6515 743.322 98.1818V98.9489C743.322 99.4792 743.213 99.9669 742.995 100.412C742.782 100.852 742.465 101.207 742.043 101.477C741.627 101.742 741.115 101.875 740.509 101.875C739.894 101.875 739.375 101.742 738.954 101.477C738.532 101.207 738.213 100.852 737.995 100.412C737.777 99.9669 737.668 99.4792 737.668 98.9489ZM739.117 98.1818V98.9489C739.117 99.3892 739.221 99.7846 739.43 100.135C739.638 100.481 739.998 100.653 740.509 100.653C741.006 100.653 741.357 100.481 741.56 100.135C741.769 99.7846 741.873 99.3892 741.873 98.9489V98.1818C741.873 97.7415 741.773 97.3485 741.575 97.0028C741.376 96.6525 741.021 96.4773 740.509 96.4773C740.012 96.4773 739.655 96.6525 739.437 97.0028C739.224 97.3485 739.117 97.7415 739.117 98.1818ZM738.208 110L748.208 95.4545H749.827L739.827 110H738.208Z" fill="black"/>
<path d="M898.761 110V95.4545H907.54V97.017H900.523V101.932H907.085V103.494H900.523V108.438H907.653V110H898.761ZM915.345 99.0909V100.511H909.464V99.0909H915.345ZM911.226 110V97.5852C911.226 96.9602 911.373 96.4394 911.666 96.0227C911.96 95.6061 912.341 95.2936 912.81 95.0852C913.278 94.8769 913.773 94.7727 914.294 94.7727C914.706 94.7727 915.042 94.8059 915.303 94.8722C915.563 94.9384 915.757 95 915.885 95.0568L915.402 96.5057C915.317 96.4773 915.198 96.4418 915.047 96.3991C914.9 96.3565 914.706 96.3352 914.464 96.3352C913.911 96.3352 913.51 96.4749 913.264 96.7543C913.023 97.0336 912.902 97.4432 912.902 97.983V110H911.226ZM922.552 99.0909V100.511H916.672V99.0909H922.552ZM918.433 110V97.5852C918.433 96.9602 918.58 96.4394 918.873 96.0227C919.167 95.6061 919.548 95.2936 920.017 95.0852C920.485 94.8769 920.98 94.7727 921.501 94.7727C921.913 94.7727 922.249 94.8059 922.51 94.8722C922.77 94.9384 922.964 95 923.092 95.0568L922.609 96.5057C922.524 96.4773 922.405 96.4418 922.254 96.3991C922.107 96.3565 921.913 96.3352 921.672 96.3352C921.118 96.3352 920.717 96.4749 920.471 96.7543C920.23 97.0336 920.109 97.4432 920.109 97.983V110H918.433ZM924.901 110V99.0909H926.577V110H924.901ZM925.754 97.2727C925.427 97.2727 925.145 97.1615 924.908 96.9389C924.676 96.7164 924.56 96.4489 924.56 96.1364C924.56 95.8239 924.676 95.5563 924.908 95.3338C925.145 95.1113 925.427 95 925.754 95C926.08 95 926.36 95.1113 926.592 95.3338C926.828 95.5563 926.947 95.8239 926.947 96.1364C926.947 96.4489 926.828 96.7164 926.592 96.9389C926.36 97.1615 926.08 97.2727 925.754 97.2727ZM934.079 110.227C933.056 110.227 932.176 109.986 931.437 109.503C930.699 109.02 930.13 108.355 929.733 107.507C929.335 106.66 929.136 105.691 929.136 104.602C929.136 103.494 929.34 102.517 929.747 101.669C930.159 100.817 930.732 100.152 931.466 99.6733C932.204 99.1903 933.066 98.9489 934.051 98.9489C934.818 98.9489 935.509 99.0909 936.125 99.375C936.74 99.6591 937.244 100.057 937.637 100.568C938.03 101.08 938.274 101.676 938.369 102.358H936.693C936.565 101.861 936.281 101.42 935.841 101.037C935.405 100.649 934.818 100.455 934.079 100.455C933.426 100.455 932.853 100.625 932.36 100.966C931.873 101.302 931.492 101.778 931.217 102.393C930.947 103.004 930.812 103.722 930.812 104.545C930.812 105.388 930.945 106.122 931.21 106.747C931.48 107.372 931.859 107.857 932.346 108.203C932.839 108.549 933.416 108.722 934.079 108.722C934.515 108.722 934.91 108.646 935.265 108.494C935.62 108.343 935.921 108.125 936.167 107.841C936.413 107.557 936.589 107.216 936.693 106.818H938.369C938.274 107.462 938.04 108.042 937.666 108.558C937.297 109.07 936.806 109.477 936.196 109.78C935.59 110.078 934.884 110.227 934.079 110.227ZM940.819 110V99.0909H942.495V110H940.819ZM941.672 97.2727C941.345 97.2727 941.063 97.1615 940.826 96.9389C940.594 96.7164 940.478 96.4489 940.478 96.1364C940.478 95.8239 940.594 95.5563 940.826 95.3338C941.063 95.1113 941.345 95 941.672 95C941.998 95 942.278 95.1113 942.51 95.3338C942.746 95.5563 942.865 95.8239 942.865 96.1364C942.865 96.4489 942.746 96.7164 942.51 96.9389C942.278 97.1615 941.998 97.2727 941.672 97.2727ZM950.139 110.227C949.088 110.227 948.181 109.995 947.419 109.531C946.661 109.062 946.077 108.409 945.665 107.571C945.258 106.728 945.054 105.748 945.054 104.631C945.054 103.513 945.258 102.528 945.665 101.676C946.077 100.819 946.65 100.152 947.384 99.6733C948.122 99.1903 948.984 98.9489 949.969 98.9489C950.537 98.9489 951.098 99.0436 951.652 99.233C952.206 99.4223 952.71 99.7301 953.165 100.156C953.619 100.578 953.982 101.136 954.251 101.832C954.521 102.528 954.656 103.385 954.656 104.403V105.114H946.247V103.665H952.952C952.952 103.049 952.829 102.5 952.582 102.017C952.341 101.534 951.995 101.153 951.545 100.874C951.1 100.594 950.575 100.455 949.969 100.455C949.301 100.455 948.723 100.62 948.236 100.952C947.753 101.278 947.381 101.705 947.121 102.23C946.86 102.756 946.73 103.319 946.73 103.92V104.886C946.73 105.71 946.872 106.409 947.156 106.982C947.445 107.55 947.845 107.983 948.357 108.281C948.868 108.575 949.462 108.722 950.139 108.722C950.58 108.722 950.977 108.66 951.332 108.537C951.692 108.409 952.002 108.22 952.263 107.969C952.523 107.713 952.724 107.396 952.866 107.017L954.486 107.472C954.315 108.021 954.029 108.504 953.626 108.92C953.224 109.332 952.727 109.654 952.135 109.886C951.543 110.114 950.878 110.227 950.139 110.227ZM958.882 103.438V110H957.206V99.0909H958.825V100.795H958.967C959.223 100.241 959.611 99.7964 960.132 99.4602C960.653 99.1193 961.325 98.9489 962.149 98.9489C962.888 98.9489 963.534 99.1004 964.088 99.4034C964.642 99.7017 965.073 100.156 965.381 100.767C965.688 101.373 965.842 102.14 965.842 103.068V110H964.166V103.182C964.166 102.325 963.944 101.657 963.499 101.179C963.054 100.696 962.443 100.455 961.666 100.455C961.131 100.455 960.653 100.571 960.232 100.803C959.815 101.035 959.486 101.373 959.244 101.818C959.003 102.263 958.882 102.803 958.882 103.438ZM973.337 110.227C972.314 110.227 971.434 109.986 970.695 109.503C969.956 109.02 969.388 108.355 968.99 107.507C968.593 106.66 968.394 105.691 968.394 104.602C968.394 103.494 968.597 102.517 969.005 101.669C969.417 100.817 969.989 100.152 970.723 99.6733C971.462 99.1903 972.324 98.9489 973.309 98.9489C974.076 98.9489 974.767 99.0909 975.382 99.375C975.998 99.6591 976.502 100.057 976.895 100.568C977.288 101.08 977.532 101.676 977.627 102.358H975.951C975.823 101.861 975.539 101.42 975.098 101.037C974.663 100.649 974.076 100.455 973.337 100.455C972.684 100.455 972.111 100.625 971.618 100.966C971.131 101.302 970.749 101.778 970.475 102.393C970.205 103.004 970.07 103.722 970.07 104.545C970.07 105.388 970.203 106.122 970.468 106.747C970.738 107.372 971.116 107.857 971.604 108.203C972.096 108.549 972.674 108.722 973.337 108.722C973.773 108.722 974.168 108.646 974.523 108.494C974.878 108.343 975.179 108.125 975.425 107.841C975.671 107.557 975.846 107.216 975.951 106.818H977.627C977.532 107.462 977.298 108.042 976.924 108.558C976.554 109.07 976.064 109.477 975.453 109.78C974.847 110.078 974.142 110.227 973.337 110.227ZM981.157 114.091C980.873 114.091 980.619 114.067 980.397 114.02C980.174 113.977 980.02 113.935 979.935 113.892L980.361 112.415C980.768 112.519 981.128 112.557 981.441 112.528C981.753 112.5 982.03 112.36 982.272 112.109C982.518 111.863 982.743 111.463 982.946 110.909L983.259 110.057L979.225 99.0909H981.043L984.054 107.784H984.168L987.179 99.0909H988.998L984.367 111.591C984.158 112.154 983.9 112.621 983.593 112.99C983.285 113.364 982.927 113.641 982.52 113.821C982.118 114.001 981.663 114.091 981.157 114.091ZM995.812 95.2557C996.409 95.2604 997.005 95.3741 997.602 95.5966C998.199 95.8191 998.743 96.1884 999.235 96.7045C999.728 97.2159 1000.12 97.9143 1000.42 98.7997C1000.72 99.6851 1000.87 100.795 1000.87 102.131C1000.87 103.423 1000.75 104.571 1000.5 105.575C1000.26 106.574 999.908 107.417 999.449 108.104C998.994 108.79 998.44 109.311 997.787 109.666C997.138 110.021 996.404 110.199 995.585 110.199C994.77 110.199 994.044 110.038 993.404 109.716C992.77 109.389 992.249 108.937 991.842 108.359C991.44 107.777 991.181 107.102 991.068 106.335H992.801C992.957 107.003 993.267 107.554 993.731 107.99C994.2 108.421 994.818 108.636 995.585 108.636C996.707 108.636 997.592 108.146 998.241 107.166C998.895 106.186 999.221 104.801 999.221 103.011H999.108C998.842 103.409 998.528 103.752 998.163 104.041C997.798 104.33 997.394 104.553 996.949 104.709C996.503 104.865 996.03 104.943 995.528 104.943C994.695 104.943 993.93 104.737 993.234 104.325C992.543 103.909 991.989 103.338 991.572 102.614C991.16 101.884 990.954 101.051 990.954 100.114C990.954 99.2235 991.153 98.4091 991.551 97.6705C991.953 96.9271 992.517 96.3352 993.241 95.8949C993.97 95.4545 994.827 95.2415 995.812 95.2557ZM995.812 96.8182C995.216 96.8182 994.678 96.9673 994.2 97.2656C993.726 97.5592 993.35 97.9569 993.071 98.4588C992.796 98.956 992.659 99.5076 992.659 100.114C992.659 100.72 992.791 101.271 993.056 101.768C993.326 102.261 993.693 102.654 994.157 102.947C994.626 103.236 995.159 103.381 995.755 103.381C996.205 103.381 996.624 103.293 997.012 103.118C997.401 102.938 997.739 102.694 998.028 102.386C998.322 102.074 998.551 101.721 998.717 101.328C998.883 100.93 998.966 100.516 998.966 100.085C998.966 99.517 998.828 98.9844 998.554 98.4872C998.284 97.9901 997.91 97.5876 997.431 97.2798C996.958 96.9721 996.418 96.8182 995.812 96.8182ZM1008.49 110.199C1007.89 110.189 1007.3 110.076 1006.7 109.858C1006.11 109.64 1005.56 109.273 1005.07 108.757C1004.58 108.236 1004.18 107.533 1003.88 106.648C1003.58 105.758 1003.43 104.64 1003.43 103.295C1003.43 102.008 1003.56 100.866 1003.8 99.8722C1004.04 98.8731 1004.39 98.0327 1004.85 97.3509C1005.31 96.6643 1005.86 96.1435 1006.51 95.7884C1007.16 95.4332 1007.9 95.2557 1008.72 95.2557C1009.53 95.2557 1010.26 95.419 1010.89 95.7457C1011.53 96.0677 1012.05 96.5175 1012.45 97.0952C1012.86 97.6728 1013.12 98.3381 1013.24 99.0909H1011.5C1011.34 98.4375 1011.03 97.8954 1010.57 97.4645C1010.1 97.0336 1009.49 96.8182 1008.72 96.8182C1007.59 96.8182 1006.7 97.3082 1006.06 98.2884C1005.41 99.2685 1005.09 100.644 1005.08 102.415H1005.2C1005.46 102.012 1005.78 101.669 1006.14 101.385C1006.51 101.096 1006.92 100.874 1007.36 100.717C1007.81 100.561 1008.28 100.483 1008.78 100.483C1009.61 100.483 1010.37 100.691 1011.06 101.108C1011.75 101.52 1012.31 102.09 1012.72 102.82C1013.14 103.544 1013.35 104.375 1013.35 105.312C1013.35 106.212 1013.15 107.036 1012.75 107.784C1012.34 108.527 1011.78 109.119 1011.05 109.56C1010.32 109.995 1009.47 110.208 1008.49 110.199ZM1008.49 108.636C1009.09 108.636 1009.62 108.487 1010.1 108.189C1010.57 107.891 1010.95 107.491 1011.23 106.989C1011.51 106.487 1011.64 105.928 1011.64 105.312C1011.64 104.711 1011.51 104.164 1011.24 103.672C1010.97 103.175 1010.61 102.779 1010.14 102.486C1009.68 102.192 1009.14 102.045 1008.55 102.045C1008.1 102.045 1007.68 102.135 1007.29 102.315C1006.9 102.491 1006.56 102.732 1006.27 103.04C1005.98 103.348 1005.75 103.7 1005.59 104.098C1005.42 104.491 1005.34 104.905 1005.34 105.341C1005.34 105.919 1005.47 106.458 1005.74 106.96C1006.02 107.462 1006.39 107.867 1006.87 108.175C1007.34 108.482 1007.89 108.636 1008.49 108.636ZM1016.71 110.114C1016.36 110.114 1016.06 109.988 1015.81 109.737C1015.56 109.486 1015.43 109.186 1015.43 108.835C1015.43 108.485 1015.56 108.184 1015.81 107.933C1016.06 107.682 1016.36 107.557 1016.71 107.557C1017.06 107.557 1017.36 107.682 1017.61 107.933C1017.86 108.184 1017.99 108.485 1017.99 108.835C1017.99 109.067 1017.93 109.28 1017.81 109.474C1017.7 109.669 1017.54 109.825 1017.35 109.943C1017.16 110.057 1016.95 110.114 1016.71 110.114ZM1025.46 95.2557C1026.06 95.2604 1026.65 95.3741 1027.25 95.5966C1027.85 95.8191 1028.39 96.1884 1028.88 96.7045C1029.38 97.2159 1029.77 97.9143 1030.07 98.7997C1030.37 99.6851 1030.52 100.795 1030.52 102.131C1030.52 103.423 1030.39 104.571 1030.15 105.575C1029.91 106.574 1029.56 107.417 1029.1 108.104C1028.64 108.79 1028.09 109.311 1027.44 109.666C1026.79 110.021 1026.05 110.199 1025.23 110.199C1024.42 110.199 1023.69 110.038 1023.05 109.716C1022.42 109.389 1021.9 108.937 1021.49 108.359C1021.09 107.777 1020.83 107.102 1020.72 106.335H1022.45C1022.61 107.003 1022.92 107.554 1023.38 107.99C1023.85 108.421 1024.47 108.636 1025.23 108.636C1026.36 108.636 1027.24 108.146 1027.89 107.166C1028.54 106.186 1028.87 104.801 1028.87 103.011H1028.76C1028.49 103.409 1028.18 103.752 1027.81 104.041C1027.45 104.33 1027.04 104.553 1026.6 104.709C1026.15 104.865 1025.68 104.943 1025.18 104.943C1024.34 104.943 1023.58 104.737 1022.88 104.325C1022.19 103.909 1021.64 103.338 1021.22 102.614C1020.81 101.884 1020.6 101.051 1020.6 100.114C1020.6 99.2235 1020.8 98.4091 1021.2 97.6705C1021.6 96.9271 1022.17 96.3352 1022.89 95.8949C1023.62 95.4545 1024.48 95.2415 1025.46 95.2557ZM1025.46 96.8182C1024.86 96.8182 1024.33 96.9673 1023.85 97.2656C1023.37 97.5592 1023 97.9569 1022.72 98.4588C1022.44 98.956 1022.31 99.5076 1022.31 100.114C1022.31 100.72 1022.44 101.271 1022.7 101.768C1022.97 102.261 1023.34 102.654 1023.81 102.947C1024.27 103.236 1024.81 103.381 1025.4 103.381C1025.85 103.381 1026.27 103.293 1026.66 103.118C1027.05 102.938 1027.39 102.694 1027.68 102.386C1027.97 102.074 1028.2 101.721 1028.37 101.328C1028.53 100.93 1028.61 100.516 1028.61 100.085C1028.61 99.517 1028.48 98.9844 1028.2 98.4872C1027.93 97.9901 1027.56 97.5876 1027.08 97.2798C1026.61 96.9721 1026.07 96.8182 1025.46 96.8182ZM1040.73 107.273V106.506C1040.73 105.975 1040.83 105.49 1041.05 105.05C1041.27 104.605 1041.6 104.25 1042.02 103.984C1042.44 103.714 1042.96 103.58 1043.57 103.58C1044.18 103.58 1044.7 103.714 1045.11 103.984C1045.53 104.25 1045.85 104.605 1046.06 105.05C1046.27 105.49 1046.38 105.975 1046.38 106.506V107.273C1046.38 107.803 1046.27 108.291 1046.05 108.736C1045.84 109.176 1045.52 109.531 1045.1 109.801C1044.68 110.066 1044.17 110.199 1043.57 110.199C1042.95 110.199 1042.43 110.066 1042.01 109.801C1041.59 109.531 1041.27 109.176 1041.05 108.736C1040.83 108.291 1040.73 107.803 1040.73 107.273ZM1042.17 106.506V107.273C1042.17 107.713 1042.28 108.108 1042.49 108.459C1042.69 108.804 1043.05 108.977 1043.57 108.977C1044.06 108.977 1044.41 108.804 1044.62 108.459C1044.83 108.108 1044.93 107.713 1044.93 107.273V106.506C1044.93 106.065 1044.83 105.672 1044.63 105.327C1044.43 104.976 1044.08 104.801 1043.57 104.801C1043.07 104.801 1042.71 104.976 1042.49 105.327C1042.28 105.672 1042.17 106.065 1042.17 106.506ZM1033.48 98.9489V98.1818C1033.48 97.6515 1033.59 97.1662 1033.81 96.7259C1034.03 96.2808 1034.35 95.9257 1034.77 95.6605C1035.2 95.3906 1035.72 95.2557 1036.32 95.2557C1036.94 95.2557 1037.45 95.3906 1037.87 95.6605C1038.29 95.9257 1038.6 96.2808 1038.81 96.7259C1039.03 97.1662 1039.13 97.6515 1039.13 98.1818V98.9489C1039.13 99.4792 1039.03 99.9669 1038.81 100.412C1038.59 100.852 1038.28 101.207 1037.86 101.477C1037.44 101.742 1036.93 101.875 1036.32 101.875C1035.71 101.875 1035.19 101.742 1034.77 101.477C1034.34 101.207 1034.03 100.852 1033.81 100.412C1033.59 99.9669 1033.48 99.4792 1033.48 98.9489ZM1034.93 98.1818V98.9489C1034.93 99.3892 1035.03 99.7846 1035.24 100.135C1035.45 100.481 1035.81 100.653 1036.32 100.653C1036.82 100.653 1037.17 100.481 1037.37 100.135C1037.58 99.7846 1037.69 99.3892 1037.69 98.9489V98.1818C1037.69 97.7415 1037.59 97.3485 1037.39 97.0028C1037.19 96.6525 1036.83 96.4773 1036.32 96.4773C1035.82 96.4773 1035.47 96.6525 1035.25 97.0028C1035.04 97.3485 1034.93 97.7415 1034.93 98.1818ZM1034.02 110L1044.02 95.4545H1045.64L1035.64 110H1034.02Z" fill="black"/>
<path d="M908.307 139.455H910.068V149.085C910.068 150.08 909.834 150.967 909.365 151.749C908.901 152.525 908.245 153.138 907.398 153.588C906.55 154.033 905.556 154.256 904.415 154.256C903.274 154.256 902.279 154.033 901.432 153.588C900.584 153.138 899.926 152.525 899.457 151.749C898.993 150.967 898.761 150.08 898.761 149.085V139.455H900.523V148.943C900.523 149.653 900.679 150.286 900.991 150.839C901.304 151.389 901.749 151.822 902.327 152.139C902.909 152.452 903.605 152.608 904.415 152.608C905.224 152.608 905.92 152.452 906.503 152.139C907.085 151.822 907.53 151.389 907.838 150.839C908.151 150.286 908.307 149.653 908.307 148.943V139.455ZM913.358 158.091V143.091H914.978V144.824H915.176C915.3 144.634 915.47 144.393 915.688 144.099C915.91 143.801 916.228 143.536 916.64 143.304C917.056 143.067 917.62 142.949 918.33 142.949C919.248 142.949 920.058 143.179 920.759 143.638C921.46 144.097 922.007 144.748 922.4 145.591C922.792 146.434 922.989 147.428 922.989 148.574C922.989 149.729 922.792 150.731 922.4 151.578C922.007 152.421 921.462 153.074 920.766 153.538C920.07 153.998 919.267 154.227 918.358 154.227C917.658 154.227 917.096 154.111 916.675 153.879C916.254 153.643 915.929 153.375 915.702 153.077C915.475 152.774 915.3 152.523 915.176 152.324H915.034V158.091H913.358ZM915.006 148.545C915.006 149.369 915.127 150.096 915.368 150.726C915.61 151.351 915.962 151.841 916.426 152.196C916.891 152.546 917.459 152.722 918.131 152.722C918.832 152.722 919.417 152.537 919.885 152.168C920.359 151.794 920.714 151.292 920.951 150.662C921.192 150.027 921.313 149.322 921.313 148.545C921.313 147.778 921.194 147.087 920.958 146.472C920.726 145.851 920.373 145.361 919.9 145.001C919.431 144.637 918.841 144.455 918.131 144.455C917.449 144.455 916.876 144.627 916.412 144.973C915.948 145.314 915.598 145.792 915.361 146.408C915.124 147.018 915.006 147.731 915.006 148.545ZM930.29 143.091V144.511H924.637V143.091H930.29ZM926.284 140.477H927.961V150.875C927.961 151.348 928.029 151.704 928.167 151.94C928.309 152.172 928.489 152.329 928.706 152.409C928.929 152.485 929.163 152.523 929.409 152.523C929.594 152.523 929.746 152.513 929.864 152.494C929.982 152.471 930.077 152.452 930.148 152.438L930.489 153.943C930.375 153.986 930.217 154.028 930.013 154.071C929.81 154.118 929.551 154.142 929.239 154.142C928.766 154.142 928.301 154.04 927.847 153.837C927.397 153.633 927.023 153.323 926.725 152.906C926.431 152.49 926.284 151.964 926.284 151.33V140.477ZM932.811 154V143.091H934.488V154H932.811ZM933.664 141.273C933.337 141.273 933.055 141.161 932.819 140.939C932.587 140.716 932.471 140.449 932.471 140.136C932.471 139.824 932.587 139.556 932.819 139.334C933.055 139.111 933.337 139 933.664 139C933.99 139 934.27 139.111 934.502 139.334C934.739 139.556 934.857 139.824 934.857 140.136C934.857 140.449 934.739 140.716 934.502 140.939C934.27 141.161 933.99 141.273 933.664 141.273ZM937.558 154V143.091H939.177V144.795H939.319C939.546 144.213 939.913 143.761 940.42 143.439C940.926 143.112 941.535 142.949 942.245 142.949C942.965 142.949 943.564 143.112 944.042 143.439C944.525 143.761 944.901 144.213 945.171 144.795H945.285C945.564 144.232 945.983 143.785 946.542 143.453C947.101 143.117 947.771 142.949 948.552 142.949C949.527 142.949 950.325 143.254 950.945 143.865C951.566 144.471 951.876 145.416 951.876 146.699V154H950.2V146.699C950.2 145.894 949.979 145.319 949.539 144.973C949.099 144.627 948.58 144.455 947.984 144.455C947.217 144.455 946.622 144.687 946.201 145.151C945.78 145.61 945.569 146.192 945.569 146.898V154H943.864V146.528C943.864 145.908 943.663 145.409 943.261 145.03C942.858 144.646 942.34 144.455 941.705 144.455C941.27 144.455 940.862 144.571 940.484 144.803C940.11 145.035 939.807 145.357 939.575 145.768C939.347 146.176 939.234 146.647 939.234 147.182V154H937.558ZM959.514 154.227C958.463 154.227 957.556 153.995 956.794 153.531C956.036 153.062 955.452 152.409 955.04 151.571C954.633 150.728 954.429 149.748 954.429 148.631C954.429 147.513 954.633 146.528 955.04 145.676C955.452 144.819 956.025 144.152 956.759 143.673C957.497 143.19 958.359 142.949 959.344 142.949C959.912 142.949 960.473 143.044 961.027 143.233C961.581 143.422 962.085 143.73 962.54 144.156C962.994 144.578 963.357 145.136 963.626 145.832C963.896 146.528 964.031 147.385 964.031 148.403V149.114H955.622V147.665H962.327C962.327 147.049 962.204 146.5 961.957 146.017C961.716 145.534 961.37 145.153 960.92 144.874C960.475 144.594 959.95 144.455 959.344 144.455C958.676 144.455 958.098 144.62 957.611 144.952C957.128 145.278 956.756 145.705 956.496 146.23C956.235 146.756 956.105 147.319 956.105 147.92V148.886C956.105 149.71 956.247 150.409 956.531 150.982C956.82 151.55 957.22 151.983 957.732 152.281C958.243 152.575 958.837 152.722 959.514 152.722C959.955 152.722 960.352 152.66 960.707 152.537C961.067 152.409 961.377 152.22 961.638 151.969C961.898 151.713 962.099 151.396 962.241 151.017L963.861 151.472C963.69 152.021 963.404 152.504 963.001 152.92C962.599 153.332 962.102 153.654 961.51 153.886C960.918 154.114 960.253 154.227 959.514 154.227ZM971.183 139.256C971.78 139.26 972.376 139.374 972.973 139.597C973.57 139.819 974.114 140.188 974.607 140.705C975.099 141.216 975.494 141.914 975.793 142.8C976.091 143.685 976.24 144.795 976.24 146.131C976.24 147.423 976.117 148.571 975.871 149.575C975.629 150.574 975.279 151.417 974.82 152.104C974.365 152.79 973.811 153.311 973.158 153.666C972.509 154.021 971.775 154.199 970.956 154.199C970.142 154.199 969.415 154.038 968.776 153.716C968.141 153.389 967.62 152.937 967.213 152.359C966.811 151.777 966.553 151.102 966.439 150.335H968.172C968.328 151.003 968.638 151.554 969.102 151.99C969.571 152.421 970.189 152.636 970.956 152.636C972.078 152.636 972.964 152.146 973.612 151.166C974.266 150.186 974.592 148.801 974.592 147.011H974.479C974.214 147.409 973.899 147.752 973.534 148.041C973.17 148.33 972.765 148.553 972.32 148.709C971.875 148.865 971.401 148.943 970.899 148.943C970.066 148.943 969.301 148.737 968.605 148.325C967.914 147.909 967.36 147.338 966.943 146.614C966.531 145.884 966.325 145.051 966.325 144.114C966.325 143.223 966.524 142.409 966.922 141.67C967.324 140.927 967.888 140.335 968.612 139.895C969.341 139.455 970.198 139.241 971.183 139.256ZM971.183 140.818C970.587 140.818 970.049 140.967 969.571 141.266C969.098 141.559 968.721 141.957 968.442 142.459C968.167 142.956 968.03 143.508 968.03 144.114C968.03 144.72 968.162 145.271 968.428 145.768C968.697 146.261 969.064 146.654 969.528 146.947C969.997 147.236 970.53 147.381 971.126 147.381C971.576 147.381 971.995 147.293 972.384 147.118C972.772 146.938 973.11 146.694 973.399 146.386C973.693 146.074 973.922 145.721 974.088 145.328C974.254 144.93 974.337 144.516 974.337 144.085C974.337 143.517 974.199 142.984 973.925 142.487C973.655 141.99 973.281 141.588 972.803 141.28C972.329 140.972 971.789 140.818 971.183 140.818ZM983.692 154.199C982.717 154.199 981.855 154.026 981.107 153.68C980.364 153.33 979.783 152.849 979.367 152.239C978.95 151.623 978.744 150.922 978.749 150.136C978.744 149.521 978.865 148.953 979.111 148.432C979.357 147.906 979.694 147.468 980.12 147.118C980.551 146.763 981.031 146.538 981.561 146.443V146.358C980.865 146.178 980.311 145.787 979.9 145.186C979.488 144.58 979.284 143.891 979.289 143.119C979.284 142.381 979.471 141.72 979.85 141.138C980.229 140.555 980.749 140.096 981.412 139.76C982.08 139.424 982.84 139.256 983.692 139.256C984.535 139.256 985.288 139.424 985.951 139.76C986.614 140.096 987.134 140.555 987.513 141.138C987.897 141.72 988.091 142.381 988.096 143.119C988.091 143.891 987.88 144.58 987.463 145.186C987.051 145.787 986.505 146.178 985.823 146.358V146.443C986.348 146.538 986.822 146.763 987.243 147.118C987.665 147.468 988.001 147.906 988.252 148.432C988.503 148.953 988.631 149.521 988.635 150.136C988.631 150.922 988.417 151.623 987.996 152.239C987.579 152.849 986.999 153.33 986.256 153.68C985.517 154.026 984.663 154.199 983.692 154.199ZM983.692 152.636C984.35 152.636 984.918 152.53 985.397 152.317C985.875 152.104 986.244 151.803 986.505 151.415C986.765 151.027 986.898 150.572 986.902 150.051C986.898 149.502 986.756 149.017 986.476 148.595C986.197 148.174 985.816 147.842 985.333 147.601C984.855 147.359 984.308 147.239 983.692 147.239C983.072 147.239 982.518 147.359 982.03 147.601C981.547 147.842 981.166 148.174 980.887 148.595C980.612 149.017 980.477 149.502 980.482 150.051C980.477 150.572 980.603 151.027 980.858 151.415C981.119 151.803 981.49 152.104 981.973 152.317C982.456 152.53 983.029 152.636 983.692 152.636ZM983.692 145.733C984.213 145.733 984.675 145.629 985.077 145.42C985.484 145.212 985.804 144.921 986.036 144.547C986.268 144.173 986.386 143.735 986.391 143.233C986.386 142.741 986.27 142.312 986.043 141.947C985.816 141.578 985.501 141.294 985.098 141.095C984.696 140.892 984.227 140.79 983.692 140.79C983.148 140.79 982.672 140.892 982.265 141.095C981.857 141.294 981.542 141.578 981.32 141.947C981.097 142.312 980.989 142.741 980.993 143.233C980.989 143.735 981.1 144.173 981.327 144.547C981.559 144.921 981.879 145.212 982.286 145.42C982.693 145.629 983.162 145.733 983.692 145.733ZM992.158 154.114C991.808 154.114 991.507 153.988 991.256 153.737C991.005 153.486 990.88 153.186 990.88 152.835C990.88 152.485 991.005 152.184 991.256 151.933C991.507 151.682 991.808 151.557 992.158 151.557C992.508 151.557 992.809 151.682 993.06 151.933C993.311 152.184 993.436 152.485 993.436 152.835C993.436 153.067 993.377 153.28 993.259 153.474C993.145 153.669 992.991 153.825 992.797 153.943C992.608 154.057 992.395 154.114 992.158 154.114ZM1000.91 139.256C1001.51 139.26 1002.1 139.374 1002.7 139.597C1003.3 139.819 1003.84 140.188 1004.33 140.705C1004.83 141.216 1005.22 141.914 1005.52 142.8C1005.82 143.685 1005.97 144.795 1005.97 146.131C1005.97 147.423 1005.84 148.571 1005.6 149.575C1005.36 150.574 1005.01 151.417 1004.55 152.104C1004.09 152.79 1003.54 153.311 1002.88 153.666C1002.24 154.021 1001.5 154.199 1000.68 154.199C999.868 154.199 999.141 154.038 998.502 153.716C997.868 153.389 997.347 152.937 996.94 152.359C996.537 151.777 996.279 151.102 996.165 150.335H997.898C998.055 151.003 998.365 151.554 998.829 151.99C999.298 152.421 999.915 152.636 1000.68 152.636C1001.8 152.636 1002.69 152.146 1003.34 151.166C1003.99 150.186 1004.32 148.801 1004.32 147.011H1004.21C1003.94 147.409 1003.63 147.752 1003.26 148.041C1002.9 148.33 1002.49 148.553 1002.05 148.709C1001.6 148.865 1001.13 148.943 1000.63 148.943C999.792 148.943 999.028 148.737 998.332 148.325C997.64 147.909 997.086 147.338 996.67 146.614C996.258 145.884 996.052 145.051 996.052 144.114C996.052 143.223 996.251 142.409 996.648 141.67C997.051 140.927 997.614 140.335 998.339 139.895C999.068 139.455 999.925 139.241 1000.91 139.256ZM1000.91 140.818C1000.31 140.818 999.776 140.967 999.298 141.266C998.824 141.559 998.448 141.957 998.168 142.459C997.894 142.956 997.756 143.508 997.756 144.114C997.756 144.72 997.889 145.271 998.154 145.768C998.424 146.261 998.791 146.654 999.255 146.947C999.724 147.236 1000.26 147.381 1000.85 147.381C1001.3 147.381 1001.72 147.293 1002.11 147.118C1002.5 146.938 1002.84 146.694 1003.13 146.386C1003.42 146.074 1003.65 145.721 1003.81 145.328C1003.98 144.93 1004.06 144.516 1004.06 144.085C1004.06 143.517 1003.93 142.984 1003.65 142.487C1003.38 141.99 1003.01 141.588 1002.53 141.28C1002.06 140.972 1001.52 140.818 1000.91 140.818ZM1016.17 151.273V150.506C1016.17 149.975 1016.28 149.49 1016.5 149.05C1016.72 148.605 1017.05 148.25 1017.47 147.984C1017.89 147.714 1018.41 147.58 1019.02 147.58C1019.63 147.58 1020.15 147.714 1020.56 147.984C1020.98 148.25 1021.3 148.605 1021.51 149.05C1021.72 149.49 1021.83 149.975 1021.83 150.506V151.273C1021.83 151.803 1021.72 152.291 1021.5 152.736C1021.29 153.176 1020.97 153.531 1020.55 153.801C1020.13 154.066 1019.62 154.199 1019.02 154.199C1018.4 154.199 1017.88 154.066 1017.46 153.801C1017.04 153.531 1016.72 153.176 1016.5 152.736C1016.28 152.291 1016.17 151.803 1016.17 151.273ZM1017.62 150.506V151.273C1017.62 151.713 1017.73 152.108 1017.94 152.459C1018.14 152.804 1018.5 152.977 1019.02 152.977C1019.51 152.977 1019.86 152.804 1020.07 152.459C1020.27 152.108 1020.38 151.713 1020.38 151.273V150.506C1020.38 150.065 1020.28 149.672 1020.08 149.327C1019.88 148.976 1019.53 148.801 1019.02 148.801C1018.52 148.801 1018.16 148.976 1017.94 149.327C1017.73 149.672 1017.62 150.065 1017.62 150.506ZM1008.93 142.949V142.182C1008.93 141.652 1009.04 141.166 1009.26 140.726C1009.48 140.281 1009.8 139.926 1010.22 139.661C1010.65 139.391 1011.16 139.256 1011.77 139.256C1012.39 139.256 1012.9 139.391 1013.32 139.661C1013.74 139.926 1014.05 140.281 1014.26 140.726C1014.48 141.166 1014.58 141.652 1014.58 142.182V142.949C1014.58 143.479 1014.47 143.967 1014.26 144.412C1014.04 144.852 1013.73 145.207 1013.31 145.477C1012.89 145.742 1012.38 145.875 1011.77 145.875C1011.16 145.875 1010.64 145.742 1010.22 145.477C1009.79 145.207 1009.47 144.852 1009.26 144.412C1009.04 143.967 1008.93 143.479 1008.93 142.949ZM1010.38 142.182V142.949C1010.38 143.389 1010.48 143.785 1010.69 144.135C1010.9 144.481 1011.26 144.653 1011.77 144.653C1012.27 144.653 1012.62 144.481 1012.82 144.135C1013.03 143.785 1013.13 143.389 1013.13 142.949V142.182C1013.13 141.741 1013.04 141.348 1012.84 141.003C1012.64 140.652 1012.28 140.477 1011.77 140.477C1011.27 140.477 1010.92 140.652 1010.7 141.003C1010.49 141.348 1010.38 141.741 1010.38 142.182ZM1009.47 154L1019.47 139.455H1021.09L1011.09 154H1009.47Z" fill="black"/>
<path d="M646.358 154H644.511L649.852 139.455H651.67L657.011 154H655.165L650.818 141.756H650.705L646.358 154ZM647.04 148.318H654.483V149.881H647.04V148.318ZM666.603 143.091L662.569 154H660.864L656.83 143.091H658.648L661.66 151.784H661.773L664.785 143.091H666.603ZM672.828 158.318C672.018 158.318 671.322 158.214 670.74 158.006C670.158 157.802 669.672 157.532 669.284 157.196C668.901 156.865 668.595 156.509 668.368 156.131L669.703 155.193C669.855 155.392 670.046 155.619 670.278 155.875C670.51 156.135 670.828 156.36 671.23 156.55C671.637 156.744 672.17 156.841 672.828 156.841C673.709 156.841 674.436 156.628 675.009 156.202C675.581 155.776 675.868 155.108 675.868 154.199V151.983H675.726C675.603 152.182 675.428 152.428 675.2 152.722C674.978 153.01 674.656 153.268 674.234 153.496C673.818 153.718 673.254 153.83 672.544 153.83C671.663 153.83 670.873 153.621 670.172 153.205C669.476 152.788 668.924 152.182 668.517 151.386C668.115 150.591 667.913 149.625 667.913 148.489C667.913 147.371 668.11 146.398 668.503 145.57C668.896 144.736 669.443 144.092 670.143 143.638C670.844 143.179 671.654 142.949 672.572 142.949C673.283 142.949 673.846 143.067 674.263 143.304C674.684 143.536 675.006 143.801 675.229 144.099C675.456 144.393 675.631 144.634 675.754 144.824H675.925V143.091H677.544V154.312C677.544 155.25 677.331 156.012 676.905 156.599C676.483 157.191 675.915 157.625 675.2 157.899C674.49 158.179 673.699 158.318 672.828 158.318ZM672.771 152.324C673.444 152.324 674.012 152.17 674.476 151.862C674.94 151.554 675.293 151.112 675.534 150.534C675.776 149.956 675.896 149.265 675.896 148.46C675.896 147.674 675.778 146.981 675.541 146.379C675.304 145.778 674.954 145.307 674.49 144.966C674.026 144.625 673.453 144.455 672.771 144.455C672.061 144.455 671.469 144.634 670.996 144.994C670.527 145.354 670.174 145.837 669.938 146.443C669.705 147.049 669.589 147.722 669.589 148.46C669.589 149.218 669.708 149.888 669.945 150.47C670.186 151.048 670.541 151.502 671.01 151.834C671.483 152.161 672.071 152.324 672.771 152.324ZM686.464 154V139.455H695.243V141.017H688.226V145.932H694.788V147.494H688.226V152.438H695.357V154H686.464ZM699.866 147.438V154H698.19V143.091H699.81V144.795H699.952C700.207 144.241 700.596 143.796 701.116 143.46C701.637 143.119 702.31 142.949 703.134 142.949C703.872 142.949 704.518 143.1 705.072 143.403C705.626 143.702 706.057 144.156 706.365 144.767C706.673 145.373 706.827 146.14 706.827 147.068V154H705.151V147.182C705.151 146.325 704.928 145.657 704.483 145.179C704.038 144.696 703.427 144.455 702.651 144.455C702.116 144.455 701.637 144.571 701.216 144.803C700.799 145.035 700.47 145.373 700.229 145.818C699.987 146.263 699.866 146.803 699.866 147.438ZM714.463 154.227C713.412 154.227 712.506 153.995 711.743 153.531C710.986 153.062 710.401 152.409 709.989 151.571C709.582 150.728 709.378 149.748 709.378 148.631C709.378 147.513 709.582 146.528 709.989 145.676C710.401 144.819 710.974 144.152 711.708 143.673C712.446 143.19 713.308 142.949 714.293 142.949C714.861 142.949 715.422 143.044 715.976 143.233C716.53 143.422 717.034 143.73 717.489 144.156C717.944 144.578 718.306 145.136 718.576 145.832C718.846 146.528 718.98 147.385 718.98 148.403V149.114H710.571V147.665H717.276C717.276 147.049 717.153 146.5 716.907 146.017C716.665 145.534 716.319 145.153 715.87 144.874C715.425 144.594 714.899 144.455 714.293 144.455C713.625 144.455 713.048 144.62 712.56 144.952C712.077 145.278 711.705 145.705 711.445 146.23C711.185 146.756 711.054 147.319 711.054 147.92V148.886C711.054 149.71 711.196 150.409 711.48 150.982C711.769 151.55 712.169 151.983 712.681 152.281C713.192 152.575 713.786 152.722 714.463 152.722C714.904 152.722 715.301 152.66 715.657 152.537C716.016 152.409 716.327 152.22 716.587 151.969C716.847 151.713 717.049 151.396 717.191 151.017L718.81 151.472C718.64 152.021 718.353 152.504 717.951 152.92C717.548 153.332 717.051 153.654 716.459 153.886C715.867 154.114 715.202 154.227 714.463 154.227ZM721.53 154V143.091H723.15V144.739H723.263C723.462 144.199 723.822 143.761 724.343 143.425C724.864 143.089 725.451 142.92 726.104 142.92C726.227 142.92 726.381 142.923 726.566 142.928C726.75 142.932 726.89 142.939 726.985 142.949V144.653C726.928 144.639 726.798 144.618 726.594 144.589C726.395 144.556 726.185 144.54 725.962 144.54C725.432 144.54 724.958 144.651 724.542 144.874C724.13 145.091 723.803 145.394 723.561 145.783C723.325 146.166 723.206 146.604 723.206 147.097V154H721.53ZM733.043 158.318C732.233 158.318 731.537 158.214 730.955 158.006C730.373 157.802 729.887 157.532 729.499 157.196C729.115 156.865 728.81 156.509 728.583 156.131L729.918 155.193C730.069 155.392 730.261 155.619 730.493 155.875C730.725 156.135 731.042 156.36 731.445 156.55C731.852 156.744 732.385 156.841 733.043 156.841C733.924 156.841 734.65 156.628 735.223 156.202C735.796 155.776 736.083 155.108 736.083 154.199V151.983H735.941C735.818 152.182 735.642 152.428 735.415 152.722C735.193 153.01 734.871 153.268 734.449 153.496C734.033 153.718 733.469 153.83 732.759 153.83C731.878 153.83 731.087 153.621 730.387 153.205C729.691 152.788 729.139 152.182 728.732 151.386C728.329 150.591 728.128 149.625 728.128 148.489C728.128 147.371 728.325 146.398 728.718 145.57C729.111 144.736 729.658 144.092 730.358 143.638C731.059 143.179 731.869 142.949 732.787 142.949C733.498 142.949 734.061 143.067 734.478 143.304C734.899 143.536 735.221 143.801 735.444 144.099C735.671 144.393 735.846 144.634 735.969 144.824H736.14V143.091H737.759V154.312C737.759 155.25 737.546 156.012 737.12 156.599C736.698 157.191 736.13 157.625 735.415 157.899C734.705 158.179 733.914 158.318 733.043 158.318ZM732.986 152.324C733.658 152.324 734.227 152.17 734.691 151.862C735.155 151.554 735.507 151.112 735.749 150.534C735.99 149.956 736.111 149.265 736.111 148.46C736.111 147.674 735.993 146.981 735.756 146.379C735.519 145.778 735.169 145.307 734.705 144.966C734.241 144.625 733.668 144.455 732.986 144.455C732.276 144.455 731.684 144.634 731.211 144.994C730.742 145.354 730.389 145.837 730.152 146.443C729.92 147.049 729.804 147.722 729.804 148.46C729.804 149.218 729.923 149.888 730.159 150.47C730.401 151.048 730.756 151.502 731.225 151.834C731.698 152.161 732.285 152.324 732.986 152.324ZM741.907 158.091C741.623 158.091 741.369 158.067 741.147 158.02C740.924 157.977 740.77 157.935 740.685 157.892L741.111 156.415C741.518 156.519 741.878 156.557 742.191 156.528C742.503 156.5 742.78 156.36 743.022 156.109C743.268 155.863 743.493 155.463 743.696 154.909L744.009 154.057L739.975 143.091H741.793L744.804 151.784H744.918L747.929 143.091H749.748L745.117 155.591C744.908 156.154 744.65 156.621 744.343 156.99C744.035 157.364 743.677 157.641 743.27 157.821C742.868 158.001 742.413 158.091 741.907 158.091ZM762.67 139.455V154H760.909V141.301H760.824L757.272 143.659V141.869L760.909 139.455H762.67ZM771.967 139.455V154H770.206V141.301H770.12L766.569 143.659V141.869L770.206 139.455H771.967ZM775.809 151.017V149.568L782.201 139.455H783.252V141.699H782.542L777.713 149.341V149.455H786.321V151.017H775.809ZM782.656 154V150.577V149.902V139.455H784.332V154H782.656ZM789.549 154.114C789.198 154.114 788.898 153.988 788.647 153.737C788.396 153.486 788.27 153.186 788.27 152.835C788.27 152.485 788.396 152.184 788.647 151.933C788.898 151.682 789.198 151.557 789.549 151.557C789.899 151.557 790.2 151.682 790.451 151.933C790.702 152.184 790.827 152.485 790.827 152.835C790.827 153.067 790.768 153.28 790.65 153.474C790.536 153.669 790.382 153.825 790.188 153.943C789.998 154.057 789.785 154.114 789.549 154.114ZM798.3 139.256C798.897 139.26 799.494 139.374 800.09 139.597C800.687 139.819 801.231 140.188 801.724 140.705C802.216 141.216 802.612 141.914 802.91 142.8C803.208 143.685 803.357 144.795 803.357 146.131C803.357 147.423 803.234 148.571 802.988 149.575C802.746 150.574 802.396 151.417 801.937 152.104C801.482 152.79 800.928 153.311 800.275 153.666C799.626 154.021 798.892 154.199 798.073 154.199C797.259 154.199 796.532 154.038 795.893 153.716C795.258 153.389 794.737 152.937 794.33 152.359C793.928 151.777 793.67 151.102 793.556 150.335H795.289C795.445 151.003 795.755 151.554 796.219 151.99C796.688 152.421 797.306 152.636 798.073 152.636C799.195 152.636 800.081 152.146 800.729 151.166C801.383 150.186 801.71 148.801 801.71 147.011H801.596C801.331 147.409 801.016 147.752 800.651 148.041C800.287 148.33 799.882 148.553 799.437 148.709C798.992 148.865 798.518 148.943 798.016 148.943C797.183 148.943 796.418 148.737 795.722 148.325C795.031 147.909 794.477 147.338 794.06 146.614C793.648 145.884 793.442 145.051 793.442 144.114C793.442 143.223 793.641 142.409 794.039 141.67C794.442 140.927 795.005 140.335 795.729 139.895C796.459 139.455 797.316 139.241 798.3 139.256ZM798.3 140.818C797.704 140.818 797.166 140.967 796.688 141.266C796.215 141.559 795.838 141.957 795.559 142.459C795.284 142.956 795.147 143.508 795.147 144.114C795.147 144.72 795.28 145.271 795.545 145.768C795.815 146.261 796.182 146.654 796.646 146.947C797.114 147.236 797.647 147.381 798.244 147.381C798.693 147.381 799.112 147.293 799.501 147.118C799.889 146.938 800.228 146.694 800.516 146.386C800.81 146.074 801.04 145.721 801.205 145.328C801.371 144.93 801.454 144.516 801.454 144.085C801.454 143.517 801.317 142.984 801.042 142.487C800.772 141.99 800.398 141.588 799.92 141.28C799.446 140.972 798.906 140.818 798.3 140.818ZM813.366 150.023L813.338 147.949H813.679L818.451 143.091H820.525L815.44 148.233H815.298L813.366 150.023ZM811.804 154V139.455H813.48V154H811.804ZM818.735 154L814.474 148.602L815.667 147.438L820.866 154H818.735ZM825.552 154L821.575 139.455H823.364L826.404 151.301H826.546L829.643 139.455H831.631L834.728 151.301H834.87L837.91 139.455H839.7L835.722 154H833.904L830.694 142.409H830.58L827.37 154H825.552Z" fill="black"/>
<path d="M164.75 50.125L153.5 38.875L142.25 50.125" stroke="#181D27" stroke-width="3.75" stroke-linecap="round" stroke-linejoin="round"/>
<defs>
<filter id="filter0_di_241_755" x="30.8556" y="93.8556" width="478.006" height="84.2404" filterUnits="userSpaceOnUse" color-interpolation-filters="sRGB">
<feFlood flood-opacity="0" result="BackgroundImageFix"/>
<feColorMatrix in="SourceAlpha" type="matrix" values="0 0 0 0 0 0 0 0 0 0 0 0 0 0 0 0 0 0 127 0" result="hardAlpha"/>
<feOffset dx="2.35833" dy="2.35833"/>
<feGaussianBlur stdDeviation="2.75139"/>
<feComposite in2="hardAlpha" operator="out"/>
<feColorMatrix type="matrix" values="0 0 0 0 0 0 0 0 0 0 0 0 0 0 0 0 0 0 0.15 0"/>
<feBlend mode="normal" in2="BackgroundImageFix" result="effect1_dropShadow_241_755"/>
<feBlend mode="normal" in="SourceGraphic" in2="effect1_dropShadow_241_755" result="shape"/>
<feColorMatrix in="SourceAlpha" type="matrix" values="0 0 0 0 0 0 0 0 0 0 0 0 0 0 0 0 0 0 127 0" result="hardAlpha"/>
<feOffset dx="3.14444" dy="3.14444"/>
<feGaussianBlur stdDeviation="1.57222"/>
<feComposite in2="hardAlpha" operator="arithmetic" k2="-1" k3="1"/>
<feColorMatrix type="matrix" values="0 0 0 0 0.219608 0 0 0 0 0.243137 0 0 0 0 0.305882 0 0 0 1 0"/>
<feBlend mode="normal" in2="shape" result="effect2_innerShadow_241_755"/>
</filter>
<filter id="filter1_f_241_755" x="37.4278" y="101.428" width="461.144" height="65.5741" filterUnits="userSpaceOnUse" color-interpolation-filters="sRGB">
<feFlood flood-opacity="0" result="BackgroundImageFix"/>
<feBlend mode="normal" in="SourceGraphic" in2="BackgroundImageFix" result="shape"/>
<feGaussianBlur stdDeviation="0.786111" result="effect1_foregroundBlur_241_755"/>
</filter>
<linearGradient id="paint0_linear_241_755" x1="103.507" y1="113.552" x2="117.275" y2="211.899" gradientUnits="userSpaceOnUse">
<stop stop-color="#2A303E"/>
<stop offset="1" stop-color="#393E51"/>
</linearGradient>
</defs>
</svg>
