<svg width="920" height="1052" viewBox="0 0 920 1052" fill="none" xmlns="http://www.w3.org/2000/svg">
<rect x="0.863926" y="0.863926" width="917.825" height="1050.03" rx="16.4146" fill="#FDFEFE" stroke="#98A6D4" stroke-width="1.72785"/>
<rect x="48.0221" y="877.471" width="823.512" height="111.953" rx="55.9766" fill="#F2F5FF" stroke="#98A6D4" stroke-width="1.72785"/>
<path d="M175.946 70.6544H179.471V99.6824H175.946V70.6544ZM177.895 73.9719V70.6544H183.825C185.705 70.6544 187.378 71.0138 188.843 71.7326C190.336 72.4238 191.511 73.419 192.368 74.7184C193.253 76.0177 193.695 77.5659 193.695 79.3628C193.695 81.1321 193.253 82.6803 192.368 84.0073C191.511 85.3066 190.336 86.3157 188.843 87.0345C187.378 87.7256 185.705 88.0712 183.825 88.0712H177.895V84.7537H183.825C185.705 84.7537 187.226 84.2976 188.387 83.3853C189.576 82.473 190.17 81.1321 190.17 79.3628C190.17 77.5659 189.576 76.225 188.387 75.3404C187.226 74.4281 185.705 73.9719 183.825 73.9719H177.895ZM198.458 67.337H201.775V99.6824H198.458V67.337ZM209.508 93.7939C209.508 94.5126 209.674 95.1347 210.005 95.6599C210.365 96.1852 210.848 96.5861 211.457 96.8625C212.093 97.1113 212.811 97.2357 213.613 97.2357C214.636 97.2357 215.548 97.0284 216.35 96.6137C217.179 96.199 217.829 95.6185 218.299 94.872C218.797 94.098 219.045 93.2133 219.045 92.218L219.709 94.7062C219.709 95.9226 219.336 96.9316 218.589 97.7334C217.87 98.5351 216.972 99.1295 215.894 99.5165C214.843 99.9035 213.793 100.097 212.742 100.097C211.581 100.097 210.489 99.8621 209.466 99.3921C208.471 98.8945 207.669 98.1895 207.061 97.2772C206.453 96.3649 206.149 95.2591 206.149 93.9597C206.149 92.1075 206.798 90.6284 208.098 89.5226C209.425 88.3891 211.263 87.8224 213.613 87.8224C214.995 87.8224 216.143 87.9883 217.055 88.32C217.995 88.6241 218.741 88.9835 219.294 89.3982C219.847 89.7852 220.22 90.1032 220.414 90.352V92.301C219.446 91.6375 218.451 91.1675 217.428 90.8911C216.405 90.587 215.313 90.4349 214.152 90.4349C213.074 90.4349 212.189 90.5731 211.498 90.8496C210.835 91.126 210.337 91.5131 210.005 92.0107C209.674 92.5083 209.508 93.1027 209.508 93.7939ZM209.01 85.0025L207.393 82.5559C208.112 82.0306 209.093 81.5054 210.337 80.9801C211.609 80.4548 213.129 80.1922 214.899 80.1922C216.391 80.1922 217.691 80.4272 218.797 80.8972C219.93 81.3395 220.801 81.9892 221.409 82.8462C222.045 83.7032 222.363 84.7537 222.363 85.9978V99.6824H219.045V86.4539C219.045 85.7904 218.935 85.2513 218.714 84.8367C218.492 84.3943 218.175 84.0488 217.76 83.8C217.373 83.5511 216.917 83.3714 216.391 83.2609C215.866 83.1503 215.313 83.095 214.733 83.095C213.793 83.095 212.936 83.2056 212.162 83.4267C211.415 83.6479 210.779 83.9105 210.254 84.2146C209.729 84.5187 209.314 84.7814 209.01 85.0025ZM225.077 80.6069H234.615V83.717H225.077V80.6069ZM228.187 73.9719H231.504V99.6824H228.187V73.9719ZM236.49 80.6069H246.028V83.717H236.49V80.6069ZM245.696 71.3179C245.42 70.848 245.088 70.5577 244.701 70.4471C244.342 70.3089 243.996 70.2398 243.664 70.2398C243.25 70.2398 242.89 70.3642 242.586 70.613C242.31 70.8341 242.089 71.2212 241.923 71.7741C241.757 72.327 241.674 73.0596 241.674 73.9719V99.6824H238.356V73.5572C238.356 72.0367 238.578 70.7927 239.02 69.8251C239.462 68.8575 240.084 68.1387 240.886 67.6687C241.715 67.1711 242.711 66.9223 243.872 66.9223C244.48 66.9223 245.019 67.0052 245.489 67.1711C245.959 67.337 246.36 67.5443 246.692 67.7931C247.051 68.0419 247.327 68.3046 247.521 68.581L245.696 71.3179ZM248.148 90.1446C248.148 88.2094 248.577 86.4954 249.434 85.0025C250.319 83.5097 251.507 82.3347 253 81.4777C254.493 80.6207 256.166 80.1922 258.018 80.1922C259.898 80.1922 261.57 80.6207 263.036 81.4777C264.529 82.3347 265.703 83.5097 266.56 85.0025C267.445 86.4954 267.887 88.2094 267.887 90.1446C267.887 92.0522 267.445 93.7662 266.56 95.2867C265.703 96.7796 264.529 97.9545 263.036 98.8115C261.57 99.6686 259.898 100.097 258.018 100.097C256.166 100.097 254.493 99.6686 253 98.8115C251.507 97.9545 250.319 96.7796 249.434 95.2867C248.577 93.7662 248.148 92.0522 248.148 90.1446ZM251.507 90.1446C251.507 91.4716 251.784 92.6466 252.337 93.6694C252.917 94.6923 253.691 95.5079 254.659 96.1161C255.654 96.6966 256.774 96.9869 258.018 96.9869C259.262 96.9869 260.368 96.6966 261.335 96.1161C262.331 95.5079 263.105 94.6923 263.658 93.6694C264.238 92.6466 264.529 91.4716 264.529 90.1446C264.529 88.8176 264.238 87.6427 263.658 86.6198C263.105 85.5693 262.331 84.7537 261.335 84.1732C260.368 83.5926 259.262 83.3023 258.018 83.3023C256.774 83.3023 255.654 83.5926 254.659 84.1732C253.691 84.7537 252.917 85.5693 252.337 86.6198C251.784 87.6427 251.507 88.8176 251.507 90.1446ZM275.762 80.6069V99.6824H272.445V80.6069H275.762ZM281.526 84.2561C281.084 83.9244 280.683 83.6894 280.324 83.5511C279.964 83.3853 279.508 83.3023 278.955 83.3023C278.126 83.3023 277.476 83.5097 277.006 83.9244C276.536 84.339 276.205 84.9058 276.011 85.6246C275.845 86.3434 275.762 87.1589 275.762 88.0712H274.269C274.269 86.5507 274.532 85.2099 275.057 84.0488C275.61 82.86 276.315 81.92 277.172 81.2289C278.029 80.5378 278.9 80.1922 279.785 80.1922C280.476 80.1922 281.112 80.289 281.692 80.4825C282.3 80.6483 282.853 80.9939 283.351 81.5192L281.526 84.2561ZM312.784 87.6565V99.6824H309.467V88.0712C309.467 86.4401 309.163 85.2375 308.554 84.4634C307.974 83.6894 307.062 83.3023 305.817 83.3023C304.905 83.3023 304.117 83.4959 303.454 83.8829C302.79 84.2423 302.279 84.7814 301.919 85.5002C301.56 86.2189 301.38 87.076 301.38 88.0712V99.6824H298.063V88.0712C298.063 86.4401 297.759 85.2375 297.151 84.4634C296.57 83.6894 295.658 83.3023 294.414 83.3023C293.501 83.3023 292.713 83.4959 292.05 83.8829C291.386 84.2423 290.875 84.7814 290.516 85.5002C290.156 86.2189 289.977 87.076 289.977 88.0712V99.6824H286.659V80.6069H289.977V83.3853C290.557 82.3071 291.276 81.5054 292.133 80.9801C293.018 80.4548 294.054 80.1922 295.243 80.1922C296.57 80.1922 297.704 80.5101 298.643 81.146C299.611 81.7542 300.316 82.625 300.758 83.7585C301.422 82.5697 302.251 81.6851 303.246 81.1045C304.242 80.4963 305.375 80.1922 306.647 80.1922C307.946 80.1922 309.052 80.4825 309.964 81.063C310.877 81.6436 311.568 82.5006 312.038 83.6341C312.535 84.7399 312.784 86.0807 312.784 87.6565ZM317.73 100.926H321.089C321.089 101.839 321.338 102.682 321.836 103.456C322.333 104.258 323.038 104.894 323.951 105.364C324.863 105.861 325.941 106.11 327.185 106.11C328.153 106.11 329.106 105.875 330.046 105.405C330.986 104.935 331.76 104.189 332.369 103.166C333.004 102.17 333.322 100.871 333.322 99.2677V80.6069H336.64V99.2677C336.64 101.452 336.184 103.276 335.271 104.742C334.359 106.234 333.184 107.354 331.747 108.1C330.309 108.847 328.789 109.22 327.185 109.22C325.333 109.22 323.688 108.875 322.25 108.183C320.84 107.492 319.735 106.511 318.933 105.239C318.131 103.995 317.73 102.558 317.73 100.926ZM317.357 90.1446C317.357 88.0712 317.786 86.3019 318.643 84.8367C319.5 83.3438 320.647 82.1965 322.084 81.3948C323.522 80.5931 325.098 80.1922 326.812 80.1922C328.415 80.1922 329.811 80.5931 331 81.3948C332.189 82.1965 333.115 83.3438 333.779 84.8367C334.47 86.3019 334.815 88.0712 334.815 90.1446C334.815 92.1904 334.47 93.9597 333.779 95.4526C333.115 96.9455 332.189 98.0927 331 98.8945C329.811 99.6962 328.415 100.097 326.812 100.097C325.098 100.097 323.522 99.6962 322.084 98.8945C320.647 98.0927 319.5 96.9455 318.643 95.4526C317.786 93.9597 317.357 92.1904 317.357 90.1446ZM320.716 90.1446C320.716 91.6098 321.006 92.8539 321.587 93.8768C322.195 94.8997 322.997 95.6738 323.992 96.199C324.987 96.7243 326.065 96.9869 327.227 96.9869C328.194 96.9869 329.148 96.7243 330.088 96.199C331.028 95.6738 331.802 94.8997 332.41 93.8768C333.018 92.8539 333.322 91.6098 333.322 90.1446C333.322 89.0388 333.143 88.0712 332.783 87.2418C332.424 86.3848 331.94 85.666 331.332 85.0855C330.751 84.5049 330.102 84.0626 329.383 83.7585C328.664 83.4544 327.945 83.3023 327.227 83.3023C326.065 83.3023 324.987 83.565 323.992 84.0902C322.997 84.6155 322.195 85.3896 321.587 86.4125C321.006 87.4354 320.716 88.6794 320.716 90.1446ZM345.776 108.805H342.458V80.6069H345.776V108.805ZM361.741 90.1446C361.741 92.1904 361.313 93.9597 360.456 95.4526C359.599 96.9455 358.451 98.0927 357.014 98.8945C355.604 99.6962 354.028 100.097 352.286 100.097C350.711 100.097 349.315 99.6962 348.098 98.8945C346.909 98.0927 345.969 96.9455 345.278 95.4526C344.615 93.9597 344.283 92.1904 344.283 90.1446C344.283 88.0712 344.615 86.3019 345.278 84.8367C345.969 83.3438 346.909 82.1965 348.098 81.3948C349.315 80.5931 350.711 80.1922 352.286 80.1922C354.028 80.1922 355.604 80.5931 357.014 81.3948C358.451 82.1965 359.599 83.3438 360.456 84.8367C361.313 86.3019 361.741 88.0712 361.741 90.1446ZM358.382 90.1446C358.382 88.6794 358.078 87.4354 357.47 86.4125C356.889 85.3896 356.102 84.6155 355.106 84.0902C354.139 83.565 353.061 83.3023 351.872 83.3023C350.904 83.3023 349.95 83.565 349.01 84.0902C348.071 84.6155 347.296 85.3896 346.688 86.4125C346.08 87.4354 345.776 88.6794 345.776 90.1446C345.776 91.6098 346.08 92.8539 346.688 93.8768C347.296 94.8997 348.071 95.6738 349.01 96.199C349.95 96.7243 350.904 96.9869 351.872 96.9869C353.061 96.9869 354.139 96.7243 355.106 96.199C356.102 95.6738 356.889 94.8997 357.47 93.8768C358.078 92.8539 358.382 91.6098 358.382 90.1446ZM363.413 80.6069H372.951V83.717H363.413V80.6069ZM366.523 73.9719H369.841V99.6824H366.523V73.9719ZM388.918 76.3771V72.7279L398.87 70.2398V99.6824H395.345V74.4695L388.918 76.3771ZM408.209 98.0236C408.209 97.3878 408.43 96.8487 408.872 96.4064C409.342 95.964 409.881 95.7429 410.489 95.7429C411.125 95.7429 411.664 95.964 412.107 96.4064C412.549 96.8487 412.77 97.3878 412.77 98.0236C412.77 98.6318 412.549 99.1709 412.107 99.6409C411.664 100.083 411.125 100.304 410.489 100.304C409.881 100.304 409.342 100.083 408.872 99.6409C408.43 99.1709 408.209 98.6318 408.209 98.0236ZM421.885 85.1684C421.885 86.8548 422.051 88.4168 422.383 89.8543C422.714 91.2643 423.198 92.4945 423.834 93.545C424.47 94.5679 425.23 95.3697 426.115 95.9502C427.027 96.5031 428.036 96.7796 429.142 96.7796C430.276 96.7796 431.285 96.5031 432.169 95.9502C433.054 95.3697 433.814 94.5679 434.45 93.545C435.086 92.4945 435.57 91.2643 435.901 89.8543C436.233 88.4168 436.399 86.8548 436.399 85.1684C436.399 83.482 436.233 81.9339 435.901 80.5239C435.57 79.0864 435.086 77.8561 434.45 76.8333C433.814 75.7827 433.054 74.981 432.169 74.4281C431.285 73.8475 430.276 73.5572 429.142 73.5572C428.036 73.5572 427.027 73.8475 426.115 74.4281C425.23 74.981 424.47 75.7827 423.834 76.8333C423.198 77.8561 422.714 79.0864 422.383 80.5239C422.051 81.9339 421.885 83.482 421.885 85.1684ZM418.36 85.1684C418.36 82.2656 418.816 79.6946 419.729 77.4553C420.641 75.216 421.899 73.4605 423.502 72.1888C425.133 70.8894 427.013 70.2398 429.142 70.2398C431.271 70.2398 433.137 70.8894 434.74 72.1888C436.371 73.4605 437.643 75.216 438.555 77.4553C439.468 79.6946 439.924 82.2656 439.924 85.1684C439.924 88.0712 439.468 90.6422 438.555 92.8815C437.643 95.1208 436.371 96.8902 434.74 98.1895C433.137 99.4612 431.271 100.097 429.142 100.097C427.013 100.097 425.133 99.4612 423.502 98.1895C421.899 96.8902 420.641 95.1208 419.729 92.8815C418.816 90.6422 418.36 88.0712 418.36 85.1684Z" fill="#3A3A3A"/>
<path d="M144.895 40.6806C142.816 42.4863 133.108 51.5866 121.752 61.568C112.064 70.0846 102.33 75.2871 94.9185 75.0773C91.647 74.9888 88.4432 74.2917 85.4154 73.0746C85.2941 73.0239 85.1758 72.9742 85.0545 72.9235C84.2481 72.5745 83.4297 72.1887 82.5934 71.7641C82.4761 71.7014 82.3628 71.6428 82.2454 71.5791C77.9995 69.3786 73.1073 66.3001 68.232 61.736C63.9702 57.7506 59.6656 53.636 55.7896 50.0533C50.8686 45.5062 46.8574 41.8648 45.4136 40.5463C45.1988 40.3445 44.9383 40.4081 44.7831 40.5712C44.6191 40.7313 44.5564 40.9868 44.7543 41.2056C46.0728 42.6464 49.7141 46.6566 54.2613 51.5777C57.848 55.4537 61.9626 59.7582 65.944 64.02C70.5091 68.8993 73.5866 73.7915 75.7911 78.0374C75.8537 78.1508 75.9134 78.2642 75.972 78.3815C76.3966 79.2167 76.7824 80.0361 77.1354 80.8465C77.1862 80.9678 77.2359 81.0812 77.2866 81.2035C78.5047 84.2313 79.2017 87.4351 79.2892 90.7105C79.495 98.1224 74.2966 107.852 65.7799 117.54C55.7936 128.896 46.6983 138.605 44.8885 140.688C44.5107 141.12 45.1192 141.738 45.5398 141.351C48.1182 138.991 58.8135 129.143 68.4846 120.107C91.124 98.9497 107.485 106.922 112.447 108.899C112.863 109.065 113.273 108.655 113.107 108.239C111.13 103.277 103.159 86.9121 124.319 64.2766C133.351 54.6055 143.198 43.9102 145.559 41.3269C145.945 40.9073 145.328 40.3027 144.896 40.6806L144.895 40.6806ZM100.745 83.9469L88.1569 96.5354C88.0922 96.6 87.9878 96.5344 88.0167 96.4479C88.0554 91.4526 87.95 88.152 87.95 83.8455C87.9262 83.7779 87.9878 83.7162 88.0554 83.7401C92.6168 83.9469 96.4252 83.9469 100.657 83.8077C100.743 83.7788 100.809 83.8832 100.744 83.9469L100.745 83.9469Z" fill="#3A3A3A"/>
<circle cx="61.993" cy="92.7781" r="5.05249" transform="rotate(-45 61.993 92.7781)" fill="#3A3A3A"/>
<circle cx="95.8855" cy="58.8838" r="5.05249" transform="rotate(-45 95.8855 58.8838)" fill="#3A3A3A"/>
<path d="M100.949 904.235H103.603V962.291H100.949V904.235Z" fill="black"/>
<path d="M147.505 811.872V817.626M150.382 814.749H144.628M124.488 832.012V834.889M125.927 833.451H123.05M133.029 829.854C132.9 829.356 132.641 828.902 132.277 828.538C131.914 828.175 131.46 827.915 130.962 827.787L122.136 825.511C121.986 825.468 121.853 825.378 121.759 825.253C121.664 825.128 121.613 824.976 121.613 824.819C121.613 824.663 121.664 824.51 121.759 824.386C121.853 824.261 121.986 824.17 122.136 824.127L130.962 821.85C131.459 821.722 131.914 821.463 132.277 821.099C132.641 820.736 132.9 820.282 133.029 819.784L135.305 810.959C135.347 810.808 135.438 810.674 135.563 810.58C135.688 810.485 135.84 810.433 135.997 810.433C136.154 810.433 136.307 810.485 136.432 810.58C136.557 810.674 136.648 810.808 136.69 810.959L138.964 819.784C139.093 820.282 139.352 820.736 139.716 821.1C140.079 821.464 140.534 821.723 141.032 821.852L149.857 824.126C150.009 824.168 150.143 824.258 150.238 824.383C150.334 824.509 150.385 824.662 150.385 824.819C150.385 824.977 150.334 825.13 150.238 825.255C150.143 825.38 150.009 825.471 149.857 825.513L141.032 827.787C140.534 827.915 140.079 828.175 139.716 828.538C139.352 828.902 139.093 829.356 138.964 829.854L136.689 838.68C136.646 838.831 136.556 838.964 136.431 839.059C136.306 839.154 136.153 839.205 135.996 839.205C135.839 839.205 135.686 839.154 135.561 839.059C135.436 838.964 135.346 838.831 135.303 838.68L133.029 829.854Z" stroke="#0F172B" stroke-width="2.87711" stroke-linecap="round" stroke-linejoin="round"/>
<path d="M171.387 827.418L171.993 825.801H178.258L178.865 827.418H171.387ZM175.085 820.708L172.701 826.327L172.539 826.69L170.437 831.662H168.517L175.085 816.808L181.654 831.662H179.734L177.672 826.812L177.51 826.408L175.085 820.708ZM183.657 828.813C183.846 829.095 184.062 829.358 184.304 829.601C184.547 829.843 184.823 830.039 185.133 830.187C185.456 830.322 185.806 830.389 186.184 830.389C186.642 830.389 186.999 830.288 187.255 830.086C187.524 829.87 187.659 829.58 187.659 829.217C187.659 828.893 187.551 828.624 187.336 828.408C187.134 828.179 186.871 827.991 186.548 827.842C186.224 827.681 185.881 827.533 185.517 827.398C185.113 827.236 184.702 827.048 184.284 826.832C183.88 826.603 183.536 826.313 183.253 825.963C182.984 825.599 182.849 825.148 182.849 824.609C182.849 824.056 182.991 823.598 183.273 823.235C183.57 822.871 183.947 822.601 184.405 822.426C184.877 822.251 185.362 822.163 185.86 822.163C186.359 822.163 186.824 822.244 187.255 822.406C187.699 822.568 188.09 822.783 188.427 823.053C188.764 823.322 189.027 823.632 189.215 823.982L187.922 824.811C187.666 824.461 187.342 824.171 186.952 823.942C186.574 823.713 186.143 823.598 185.658 823.598C185.321 823.598 185.032 823.672 184.789 823.821C184.547 823.969 184.425 824.198 184.425 824.508C184.425 824.75 184.52 824.966 184.708 825.155C184.897 825.343 185.14 825.512 185.436 825.66C185.732 825.808 186.042 825.949 186.366 826.084C186.905 826.3 187.396 826.536 187.841 826.792C188.286 827.034 188.636 827.33 188.892 827.681C189.161 828.031 189.296 828.482 189.296 829.035C189.296 829.843 189 830.517 188.407 831.056C187.827 831.595 187.059 831.864 186.103 831.864C185.483 831.864 184.924 831.756 184.425 831.541C183.927 831.312 183.503 831.022 183.152 830.672C182.815 830.322 182.559 829.964 182.384 829.601L183.657 828.813ZM191.324 815.898H192.94V831.662H191.324V815.898ZM196.376 822.366H198.397L194.355 826.205L198.801 831.662H196.78L192.334 826.205L196.376 822.366ZM207.84 827.418L208.446 825.801H214.711L215.317 827.418H207.84ZM211.538 820.708L209.153 826.327L208.992 826.69L206.89 831.662H204.97L211.538 816.808L218.106 831.662H216.187L214.125 826.812L213.963 826.408L211.538 820.708ZM219.827 817.515H221.545V831.662H219.827V817.515Z" fill="black"/>
<path d="M691.855 834.334C690.873 834.334 689.93 833.943 689.236 833.248C688.541 832.554 688.15 831.611 688.15 830.628C688.15 829.646 688.541 828.703 689.236 828.009C689.93 827.314 690.873 826.923 691.855 826.923C692.838 826.923 693.781 827.314 694.475 828.009C695.17 828.703 695.561 829.646 695.561 830.628C695.561 831.611 695.17 832.554 694.475 833.248C693.781 833.943 692.838 834.334 691.855 834.334Z" stroke="black" stroke-width="5.95464" stroke-linecap="round" stroke-linejoin="round"/>
<path d="M671.478 841.744C670.496 841.744 669.553 841.354 668.859 840.659C668.164 839.964 667.773 839.022 667.773 838.039C667.773 837.057 668.164 836.114 668.859 835.419C669.553 834.725 670.496 834.334 671.478 834.334C672.461 834.334 673.404 834.725 674.098 835.419C674.793 836.114 675.184 837.057 675.184 838.039C675.184 839.022 674.793 839.964 674.098 840.659C673.404 841.354 672.461 841.744 671.478 841.744Z" stroke="black" stroke-width="5.95464" stroke-linecap="round" stroke-linejoin="round"/>
<path d="M671.479 808.399L671.479 838.04" stroke="black" stroke-width="2.52625" stroke-linecap="round" stroke-linejoin="round"/>
<path d="M673.332 823.22L684.447 823.22C688.523 823.22 691.857 826.554 691.857 830.63" stroke="black" stroke-width="2.52625" stroke-linecap="round" stroke-linejoin="round"/>
<path d="M724.926 827.923L728.605 817.515H730.525L724.967 832.369L720.723 821.375L716.479 832.369L710.921 817.515H712.841L716.6 827.923L720.723 816.808L724.926 827.923ZM729.82 827.014C729.82 826.071 730.029 825.235 730.447 824.508C730.878 823.78 731.457 823.208 732.185 822.79C732.912 822.372 733.728 822.163 734.63 822.163C735.546 822.163 736.362 822.372 737.076 822.79C737.803 823.208 738.376 823.78 738.794 824.508C739.225 825.235 739.44 826.071 739.44 827.014C739.44 827.943 739.225 828.779 738.794 829.52C738.376 830.247 737.803 830.82 737.076 831.238C736.362 831.655 735.546 831.864 734.63 831.864C733.728 831.864 732.912 831.655 732.185 831.238C731.457 830.82 730.878 830.247 730.447 829.52C730.029 828.779 729.82 827.943 729.82 827.014ZM731.457 827.014C731.457 827.661 731.592 828.233 731.862 828.732C732.144 829.23 732.522 829.628 732.993 829.924C733.478 830.207 734.024 830.348 734.63 830.348C735.237 830.348 735.776 830.207 736.247 829.924C736.732 829.628 737.109 829.23 737.379 828.732C737.662 828.233 737.803 827.661 737.803 827.014C737.803 826.367 737.662 825.794 737.379 825.296C737.109 824.784 736.732 824.387 736.247 824.104C735.776 823.821 735.237 823.679 734.63 823.679C734.024 823.679 733.478 823.821 732.993 824.104C732.522 824.387 732.144 824.784 731.862 825.296C731.592 825.794 731.457 826.367 731.457 827.014ZM743.278 822.366V831.662H741.661V822.366H743.278ZM746.087 824.144C745.872 823.982 745.676 823.868 745.501 823.8C745.326 823.72 745.104 823.679 744.834 823.679C744.43 823.679 744.113 823.78 743.884 823.982C743.655 824.184 743.494 824.461 743.399 824.811C743.319 825.161 743.278 825.559 743.278 826.003H742.551C742.551 825.262 742.679 824.609 742.935 824.043C743.204 823.464 743.548 823.006 743.965 822.669C744.383 822.332 744.807 822.163 745.238 822.163C745.575 822.163 745.885 822.211 746.168 822.305C746.465 822.386 746.734 822.554 746.977 822.81L746.087 824.144ZM748.488 815.898H750.104V831.662H748.488V815.898ZM753.54 822.366H755.561L751.519 826.205L755.965 831.662H753.944L749.498 826.205L753.54 822.366ZM758.541 819.132V817.515H764.866V819.132H758.541ZM758.541 824.791V823.174H764.664V824.791H758.541ZM757.591 817.515H759.309V831.662H757.591V817.515ZM767.595 815.898H769.212V831.662H767.595V815.898ZM771.444 827.014C771.444 826.071 771.653 825.235 772.071 824.508C772.502 823.78 773.081 823.208 773.809 822.79C774.536 822.372 775.351 822.163 776.254 822.163C777.17 822.163 777.985 822.372 778.7 822.79C779.427 823.208 780 823.78 780.417 824.508C780.849 825.235 781.064 826.071 781.064 827.014C781.064 827.943 780.849 828.779 780.417 829.52C780 830.247 779.427 830.82 778.7 831.238C777.985 831.655 777.17 831.864 776.254 831.864C775.351 831.864 774.536 831.655 773.809 831.238C773.081 830.82 772.502 830.247 772.071 829.52C771.653 828.779 771.444 827.943 771.444 827.014ZM773.081 827.014C773.081 827.661 773.216 828.233 773.485 828.732C773.768 829.23 774.146 829.628 774.617 829.924C775.102 830.207 775.648 830.348 776.254 830.348C776.86 830.348 777.399 830.207 777.871 829.924C778.356 829.628 778.733 829.23 779.003 828.732C779.286 828.233 779.427 827.661 779.427 827.014C779.427 826.367 779.286 825.794 779.003 825.296C778.733 824.784 778.356 824.387 777.871 824.104C777.399 823.821 776.86 823.679 776.254 823.679C775.648 823.679 775.102 823.821 774.617 824.104C774.146 824.387 773.768 824.784 773.485 825.296C773.216 825.794 773.081 826.367 773.081 827.014ZM781.574 822.366H783.393L785.717 828.408L788.244 821.658L790.952 828.449L793.296 822.366H795.115L791.073 832.369L788.264 825.599L785.616 832.369L781.574 822.366Z" fill="black"/>
<path d="M332.514 827.923L336.192 817.515H338.112L332.555 832.369L328.311 821.375L324.066 832.369L318.509 817.515H320.429L324.188 827.923L328.311 816.808L332.514 827.923ZM337.408 827.014C337.408 826.071 337.617 825.235 338.035 824.508C338.466 823.78 339.045 823.208 339.773 822.79C340.5 822.372 341.315 822.163 342.218 822.163C343.134 822.163 343.95 822.372 344.664 822.79C345.391 823.208 345.964 823.78 346.381 824.508C346.813 825.235 347.028 826.071 347.028 827.014C347.028 827.943 346.813 828.779 346.381 829.52C345.964 830.247 345.391 830.82 344.664 831.238C343.95 831.655 343.134 831.864 342.218 831.864C341.315 831.864 340.5 831.655 339.773 831.238C339.045 830.82 338.466 830.247 338.035 829.52C337.617 828.779 337.408 827.943 337.408 827.014ZM339.045 827.014C339.045 827.661 339.18 828.233 339.449 828.732C339.732 829.23 340.11 829.628 340.581 829.924C341.066 830.207 341.612 830.348 342.218 830.348C342.824 830.348 343.363 830.207 343.835 829.924C344.32 829.628 344.697 829.23 344.967 828.732C345.25 828.233 345.391 827.661 345.391 827.014C345.391 826.367 345.25 825.794 344.967 825.296C344.697 824.784 344.32 824.387 343.835 824.104C343.363 823.821 342.824 823.679 342.218 823.679C341.612 823.679 341.066 823.821 340.581 824.104C340.11 824.387 339.732 824.784 339.449 825.296C339.18 825.794 339.045 826.367 339.045 827.014ZM350.866 822.366V831.662H349.249V822.366H350.866ZM353.675 824.144C353.46 823.982 353.264 823.868 353.089 823.8C352.914 823.72 352.692 823.679 352.422 823.679C352.018 823.679 351.701 823.78 351.472 823.982C351.243 824.184 351.082 824.461 350.987 824.811C350.906 825.161 350.866 825.559 350.866 826.003H350.138C350.138 825.262 350.266 824.609 350.522 824.043C350.792 823.464 351.135 823.006 351.553 822.669C351.971 822.332 352.395 822.163 352.826 822.163C353.163 822.163 353.473 822.211 353.756 822.305C354.052 822.386 354.322 822.554 354.564 822.81L353.675 824.144ZM356.076 815.898H357.692V831.662H356.076V815.898ZM361.128 822.366H363.149L359.107 826.205L363.553 831.662H361.532L357.086 826.205L361.128 822.366ZM372.248 824.589C372.248 825.653 372.477 826.603 372.935 827.438C373.407 828.274 374.047 828.934 374.855 829.419C375.664 829.904 376.58 830.146 377.604 830.146C378.641 830.146 379.558 829.904 380.352 829.419C381.161 828.934 381.794 828.274 382.252 827.438C382.724 826.603 382.96 825.653 382.96 824.589C382.96 823.524 382.724 822.574 382.252 821.739C381.794 820.904 381.161 820.243 380.352 819.758C379.558 819.273 378.641 819.031 377.604 819.031C376.58 819.031 375.664 819.273 374.855 819.758C374.047 820.243 373.407 820.904 372.935 821.739C372.477 822.574 372.248 823.524 372.248 824.589ZM370.429 824.589C370.429 823.551 370.605 822.595 370.955 821.719C371.319 820.83 371.824 820.062 372.471 819.415C373.117 818.755 373.879 818.243 374.754 817.879C375.63 817.502 376.58 817.313 377.604 817.313C378.641 817.313 379.591 817.502 380.454 817.879C381.329 818.243 382.091 818.755 382.737 819.415C383.384 820.062 383.882 820.83 384.233 821.719C384.597 822.595 384.778 823.551 384.778 824.589C384.778 825.613 384.597 826.569 384.233 827.458C383.882 828.348 383.384 829.122 382.737 829.783C382.091 830.429 381.329 830.941 380.454 831.319C379.591 831.682 378.641 831.864 377.604 831.864C376.58 831.864 375.63 831.682 374.754 831.319C373.879 830.941 373.117 830.429 372.471 829.783C371.824 829.122 371.319 828.348 370.955 827.458C370.605 826.569 370.429 825.613 370.429 824.589ZM388.72 822.366V831.662H387.103V822.366H388.72ZM391.529 824.144C391.314 823.982 391.118 823.868 390.943 823.8C390.768 823.72 390.546 823.679 390.276 823.679C389.872 823.679 389.556 823.78 389.327 823.982C389.097 824.184 388.936 824.461 388.841 824.811C388.761 825.161 388.72 825.559 388.72 826.003H387.993C387.993 825.262 388.121 824.609 388.377 824.043C388.646 823.464 388.99 823.006 389.407 822.669C389.825 822.332 390.249 822.163 390.681 822.163C391.017 822.163 391.327 822.211 391.61 822.305C391.907 822.386 392.176 822.554 392.419 822.81L391.529 824.144ZM401.003 815.898H402.62V831.662H401.003V815.898ZM393.222 827.014C393.222 826.003 393.431 825.141 393.849 824.427C394.267 823.699 394.826 823.14 395.526 822.75C396.227 822.359 396.995 822.163 397.83 822.163C398.612 822.163 399.292 822.359 399.872 822.75C400.451 823.14 400.902 823.699 401.226 824.427C401.562 825.141 401.731 826.003 401.731 827.014C401.731 828.011 401.562 828.873 401.226 829.601C400.902 830.328 400.451 830.887 399.872 831.278C399.292 831.669 398.612 831.864 397.83 831.864C396.995 831.864 396.227 831.669 395.526 831.278C394.826 830.887 394.267 830.328 393.849 829.601C393.431 828.873 393.222 828.011 393.222 827.014ZM394.859 827.014C394.859 827.728 395.001 828.334 395.284 828.833C395.58 829.331 395.971 829.708 396.456 829.964C396.941 830.22 397.467 830.348 398.032 830.348C398.504 830.348 398.969 830.22 399.427 829.964C399.885 829.708 400.262 829.331 400.559 828.833C400.855 828.334 401.003 827.728 401.003 827.014C401.003 826.3 400.855 825.693 400.559 825.195C400.262 824.696 399.885 824.319 399.427 824.063C398.969 823.807 398.504 823.679 398.032 823.679C397.467 823.679 396.941 823.807 396.456 824.063C395.971 824.319 395.58 824.696 395.284 825.195C395.001 825.693 394.859 826.3 394.859 827.014ZM409.154 831.864C408.292 831.864 407.524 831.662 406.85 831.258C406.19 830.84 405.671 830.268 405.294 829.54C404.93 828.813 404.748 827.97 404.748 827.014C404.748 826.044 404.937 825.195 405.314 824.467C405.705 823.74 406.244 823.174 406.931 822.77C407.632 822.366 408.44 822.163 409.356 822.163C410.272 822.163 411.054 822.359 411.701 822.75C412.361 823.127 412.866 823.672 413.216 824.387C413.567 825.101 413.742 825.949 413.742 826.933C413.742 827.027 413.735 827.128 413.722 827.236C413.722 827.33 413.722 827.391 413.722 827.418H405.779V826.044H412.448L411.802 826.973C411.842 826.906 411.883 826.805 411.923 826.67C411.963 826.522 411.984 826.401 411.984 826.306C411.984 825.754 411.869 825.276 411.64 824.872C411.424 824.467 411.121 824.151 410.731 823.922C410.34 823.693 409.882 823.578 409.356 823.578C408.737 823.578 408.204 823.713 407.76 823.982C407.329 824.238 406.992 824.616 406.749 825.114C406.52 825.599 406.399 826.199 406.385 826.913C406.385 827.64 406.5 828.26 406.729 828.772C406.958 829.284 407.295 829.675 407.74 829.944C408.184 830.214 408.723 830.348 409.356 830.348C409.99 830.348 410.549 830.214 411.034 829.944C411.519 829.661 411.93 829.237 412.267 828.671L413.58 829.5C413.095 830.281 412.482 830.874 411.741 831.278C411.014 831.669 410.151 831.864 409.154 831.864ZM417.575 822.366V831.662H415.958V822.366H417.575ZM420.384 824.144C420.168 823.982 419.973 823.868 419.798 823.8C419.623 823.72 419.4 823.679 419.131 823.679C418.727 823.679 418.41 823.78 418.181 823.982C417.952 824.184 417.79 824.461 417.696 824.811C417.615 825.161 417.575 825.559 417.575 826.003H416.847C416.847 825.262 416.975 824.609 417.231 824.043C417.501 823.464 417.844 823.006 418.262 822.669C418.679 822.332 419.104 822.163 419.535 822.163C419.872 822.163 420.182 822.211 420.465 822.305C420.761 822.386 421.031 822.554 421.273 822.81L420.384 824.144Z" fill="black"/>
<path d="M284.73 810.609H281.151C279.175 810.609 277.572 812.211 277.572 814.188V835.661C277.572 837.638 279.175 839.24 281.151 839.24H299.045C301.022 839.24 302.624 837.638 302.624 835.661V814.188C302.624 812.211 301.022 810.609 299.045 810.609H295.467M284.73 810.609C284.73 812.586 286.332 814.188 288.309 814.188H291.888C293.864 814.188 295.467 812.586 295.467 810.609M284.73 810.609C284.73 808.633 286.332 807.03 288.309 807.03H291.888C293.864 807.03 295.467 808.633 295.467 810.609M290.098 823.135H295.467M290.098 830.293H295.467M284.73 823.135H284.748M284.73 830.293H284.748" stroke="#111827" stroke-width="2.52625" stroke-linecap="round"/>
<path d="M519.499 824.69H521.418L526.471 831.662H524.349L519.499 824.69ZM516.972 817.515H518.69V831.662H516.972V817.515ZM517.922 819.031V817.515H520.812C521.728 817.515 522.543 817.69 523.258 818.041C523.985 818.377 524.558 818.862 524.975 819.496C525.407 820.129 525.622 820.883 525.622 821.759C525.622 822.622 525.407 823.376 524.975 824.023C524.558 824.656 523.985 825.148 523.258 825.498C522.543 825.835 521.728 826.003 520.812 826.003H517.922V824.488H520.812C521.418 824.488 521.951 824.38 522.409 824.164C522.88 823.949 523.244 823.639 523.5 823.235C523.77 822.83 523.904 822.339 523.904 821.759C523.904 821.18 523.77 820.688 523.5 820.284C523.244 819.88 522.88 819.57 522.409 819.354C521.951 819.139 521.418 819.031 520.812 819.031H517.922ZM531.777 831.864C530.915 831.864 530.147 831.662 529.474 831.258C528.813 830.84 528.295 830.268 527.917 829.54C527.554 828.813 527.372 827.97 527.372 827.014C527.372 826.044 527.56 825.195 527.938 824.467C528.328 823.74 528.867 823.174 529.554 822.77C530.255 822.366 531.063 822.163 531.98 822.163C532.896 822.163 533.677 822.359 534.324 822.75C534.984 823.127 535.489 823.672 535.84 824.387C536.19 825.101 536.365 825.949 536.365 826.933C536.365 827.027 536.358 827.128 536.345 827.236C536.345 827.33 536.345 827.391 536.345 827.418H528.402V826.044H535.072L534.425 826.973C534.465 826.906 534.506 826.805 534.546 826.67C534.587 826.522 534.607 826.401 534.607 826.306C534.607 825.754 534.492 825.276 534.263 824.872C534.048 824.467 533.745 824.151 533.354 823.922C532.963 823.693 532.505 823.578 531.98 823.578C531.36 823.578 530.828 823.713 530.383 823.982C529.952 824.238 529.615 824.616 529.372 825.114C529.143 825.599 529.022 826.199 529.009 826.913C529.009 827.64 529.123 828.26 529.352 828.772C529.581 829.284 529.918 829.675 530.363 829.944C530.807 830.214 531.346 830.348 531.98 830.348C532.613 830.348 533.172 830.214 533.657 829.944C534.142 829.661 534.553 829.237 534.89 828.671L536.203 829.5C535.718 830.281 535.105 830.874 534.364 831.278C533.637 831.669 532.775 831.864 531.777 831.864ZM540.097 836.108H538.48V822.366H540.097V836.108ZM547.878 827.014C547.878 828.011 547.669 828.873 547.251 829.601C546.834 830.328 546.274 830.887 545.574 831.278C544.887 831.669 544.119 831.864 543.27 831.864C542.502 831.864 541.821 831.669 541.229 831.278C540.649 830.887 540.191 830.328 539.854 829.601C539.531 828.873 539.369 828.011 539.369 827.014C539.369 826.003 539.531 825.141 539.854 824.427C540.191 823.699 540.649 823.14 541.229 822.75C541.821 822.359 542.502 822.163 543.27 822.163C544.119 822.163 544.887 822.359 545.574 822.75C546.274 823.14 546.834 823.699 547.251 824.427C547.669 825.141 547.878 826.003 547.878 827.014ZM546.241 827.014C546.241 826.3 546.093 825.693 545.796 825.195C545.513 824.696 545.129 824.319 544.644 824.063C544.173 823.807 543.647 823.679 543.068 823.679C542.596 823.679 542.131 823.807 541.673 824.063C541.215 824.319 540.838 824.696 540.542 825.195C540.245 825.693 540.097 826.3 540.097 827.014C540.097 827.728 540.245 828.334 540.542 828.833C540.838 829.331 541.215 829.708 541.673 829.964C542.131 830.22 542.596 830.348 543.068 830.348C543.647 830.348 544.173 830.22 544.644 829.964C545.129 829.708 545.513 829.331 545.796 828.833C546.093 828.334 546.241 827.728 546.241 827.014ZM549.299 827.014C549.299 826.071 549.508 825.235 549.925 824.508C550.356 823.78 550.936 823.208 551.663 822.79C552.391 822.372 553.206 822.163 554.109 822.163C555.025 822.163 555.84 822.372 556.554 822.79C557.282 823.208 557.854 823.78 558.272 824.508C558.703 825.235 558.919 826.071 558.919 827.014C558.919 827.943 558.703 828.779 558.272 829.52C557.854 830.247 557.282 830.82 556.554 831.238C555.84 831.655 555.025 831.864 554.109 831.864C553.206 831.864 552.391 831.655 551.663 831.238C550.936 830.82 550.356 830.247 549.925 829.52C549.508 828.779 549.299 827.943 549.299 827.014ZM550.936 827.014C550.936 827.661 551.07 828.233 551.34 828.732C551.623 829.23 552 829.628 552.472 829.924C552.957 830.207 553.502 830.348 554.109 830.348C554.715 830.348 555.254 830.207 555.726 829.924C556.211 829.628 556.588 829.23 556.857 828.732C557.14 828.233 557.282 827.661 557.282 827.014C557.282 826.367 557.14 825.794 556.857 825.296C556.588 824.784 556.211 824.387 555.726 824.104C555.254 823.821 554.715 823.679 554.109 823.679C553.502 823.679 552.957 823.821 552.472 824.104C552 824.387 551.623 824.784 551.34 825.296C551.07 825.794 550.936 826.367 550.936 827.014ZM562.757 822.366V831.662H561.14V822.366H562.757ZM565.566 824.144C565.35 823.982 565.155 823.868 564.98 823.8C564.804 823.72 564.582 823.679 564.313 823.679C563.908 823.679 563.592 823.78 563.363 823.982C563.134 824.184 562.972 824.461 562.878 824.811C562.797 825.161 562.757 825.559 562.757 826.003H562.029C562.029 825.262 562.157 824.609 562.413 824.043C562.682 823.464 563.026 823.006 563.444 822.669C563.861 822.332 564.286 822.163 564.717 822.163C565.054 822.163 565.364 822.211 565.647 822.305C565.943 822.386 566.212 822.554 566.455 822.81L565.566 824.144ZM566.652 822.366H571.301V823.881H566.652V822.366ZM568.168 819.132H569.785V831.662H568.168V819.132ZM579.082 817.515H580.8V831.662H579.082V817.515ZM584.319 828.813C584.508 829.095 584.723 829.358 584.966 829.601C585.208 829.843 585.485 830.039 585.794 830.187C586.118 830.322 586.468 830.389 586.845 830.389C587.303 830.389 587.661 830.288 587.916 830.086C588.186 829.87 588.321 829.58 588.321 829.217C588.321 828.893 588.213 828.624 587.997 828.408C587.795 828.179 587.533 827.991 587.209 827.842C586.886 827.681 586.542 827.533 586.178 827.398C585.774 827.236 585.363 827.048 584.946 826.832C584.541 826.603 584.198 826.313 583.915 825.963C583.645 825.599 583.511 825.148 583.511 824.609C583.511 824.056 583.652 823.598 583.935 823.235C584.232 822.871 584.609 822.601 585.067 822.426C585.538 822.251 586.023 822.163 586.522 822.163C587.021 822.163 587.485 822.244 587.916 822.406C588.361 822.568 588.752 822.783 589.089 823.053C589.426 823.322 589.688 823.632 589.877 823.982L588.583 824.811C588.327 824.461 588.004 824.171 587.613 823.942C587.236 823.713 586.805 823.598 586.32 823.598C585.983 823.598 585.693 823.672 585.451 823.821C585.208 823.969 585.087 824.198 585.087 824.508C585.087 824.75 585.181 824.966 585.37 825.155C585.559 825.343 585.801 825.512 586.098 825.66C586.394 825.808 586.704 825.949 587.027 826.084C587.566 826.3 588.058 826.536 588.503 826.792C588.947 827.034 589.298 827.33 589.554 827.681C589.823 828.031 589.958 828.482 589.958 829.035C589.958 829.843 589.661 830.517 589.068 831.056C588.489 831.595 587.721 831.864 586.765 831.864C586.145 831.864 585.586 831.756 585.087 831.541C584.589 831.312 584.164 831.022 583.814 830.672C583.477 830.322 583.221 829.964 583.046 829.601L584.319 828.813ZM592.47 828.813C592.659 829.095 592.874 829.358 593.117 829.601C593.359 829.843 593.636 830.039 593.946 830.187C594.269 830.322 594.619 830.389 594.996 830.389C595.455 830.389 595.812 830.288 596.068 830.086C596.337 829.87 596.472 829.58 596.472 829.217C596.472 828.893 596.364 828.624 596.148 828.408C595.946 828.179 595.684 827.991 595.36 827.842C595.037 827.681 594.693 827.533 594.33 827.398C593.925 827.236 593.514 827.048 593.097 826.832C592.693 826.603 592.349 826.313 592.066 825.963C591.797 825.599 591.662 825.148 591.662 824.609C591.662 824.056 591.803 823.598 592.086 823.235C592.383 822.871 592.76 822.601 593.218 822.426C593.69 822.251 594.175 822.163 594.673 822.163C595.172 822.163 595.636 822.244 596.068 822.406C596.512 822.568 596.903 822.783 597.24 823.053C597.577 823.322 597.839 823.632 598.028 823.982L596.735 824.811C596.479 824.461 596.155 824.171 595.764 823.942C595.387 823.713 594.956 823.598 594.471 823.598C594.134 823.598 593.844 823.672 593.602 823.821C593.359 823.969 593.238 824.198 593.238 824.508C593.238 824.75 593.333 824.966 593.521 825.155C593.71 825.343 593.952 825.512 594.249 825.66C594.545 825.808 594.855 825.949 595.178 826.084C595.717 826.3 596.209 826.536 596.654 826.792C597.098 827.034 597.449 827.33 597.705 827.681C597.974 828.031 598.109 828.482 598.109 829.035C598.109 829.843 597.812 830.517 597.22 831.056C596.64 831.595 595.872 831.864 594.916 831.864C594.296 831.864 593.737 831.756 593.238 831.541C592.74 831.312 592.315 831.022 591.965 830.672C591.628 830.322 591.372 829.964 591.197 829.601L592.47 828.813ZM601.854 828.024C601.854 828.765 602.023 829.338 602.359 829.742C602.696 830.146 603.188 830.348 603.835 830.348C604.306 830.348 604.717 830.254 605.067 830.066C605.431 829.863 605.707 829.587 605.896 829.237C606.098 828.887 606.199 828.482 606.199 828.024V822.366H607.816V831.662H606.199V830.207C605.889 830.759 605.505 831.177 605.047 831.46C604.589 831.729 604.05 831.864 603.43 831.864C602.46 831.864 601.686 831.534 601.106 830.874C600.527 830.214 600.237 829.331 600.237 828.226V822.366H601.854V828.024ZM614.453 831.864C613.591 831.864 612.823 831.662 612.149 831.258C611.489 830.84 610.97 830.268 610.593 829.54C610.229 828.813 610.047 827.97 610.047 827.014C610.047 826.044 610.236 825.195 610.613 824.467C611.004 823.74 611.543 823.174 612.23 822.77C612.93 822.366 613.739 822.163 614.655 822.163C615.571 822.163 616.353 822.359 616.999 822.75C617.659 823.127 618.165 823.672 618.515 824.387C618.865 825.101 619.04 825.949 619.04 826.933C619.04 827.027 619.034 827.128 619.02 827.236C619.02 827.33 619.02 827.391 619.02 827.418H611.078V826.044H617.747L617.1 826.973C617.141 826.906 617.181 826.805 617.222 826.67C617.262 826.522 617.282 826.401 617.282 826.306C617.282 825.754 617.168 825.276 616.939 824.872C616.723 824.467 616.42 824.151 616.029 823.922C615.638 823.693 615.18 823.578 614.655 823.578C614.035 823.578 613.503 823.713 613.058 823.982C612.627 824.238 612.29 824.616 612.048 825.114C611.819 825.599 611.698 826.199 611.684 826.913C611.684 827.64 611.799 828.26 612.028 828.772C612.257 829.284 612.593 829.675 613.038 829.944C613.483 830.214 614.022 830.348 614.655 830.348C615.288 830.348 615.847 830.214 616.332 829.944C616.817 829.661 617.228 829.237 617.565 828.671L618.879 829.5C618.394 830.281 617.781 830.874 617.04 831.278C616.312 831.669 615.45 831.864 614.453 831.864Z" fill="black"/>
<path d="M485.88 839.275C493.599 839.275 499.915 832.96 499.915 825.241C499.915 817.522 493.599 811.206 485.88 811.206C478.161 811.206 471.846 817.522 471.846 825.241C471.846 832.96 478.161 839.275 485.88 839.275Z" stroke="#292D32" stroke-width="2.52625" stroke-linecap="round" stroke-linejoin="round"/>
<path d="M485.881 819.627V826.644" stroke="#292D32" stroke-width="2.52625" stroke-linecap="round" stroke-linejoin="round"/>
<path d="M485.873 830.854H485.886" stroke="#292D32" stroke-width="2.52625" stroke-linecap="round" stroke-linejoin="round"/>
<path d="M757.496 95.5412H767.207V97.7689C767.207 100.768 768.736 102.282 771.779 102.282H786.092C789.12 102.282 790.649 100.768 790.649 97.7689V88.3339C790.649 85.3345 789.12 83.8203 786.092 83.8203H783.296V76.2927C783.296 73.2933 781.767 71.7791 778.739 71.7791H757.496C754.438 71.7791 752.924 73.2933 752.924 76.2927V91.0275C752.924 94.0269 754.438 95.5412 757.496 95.5412ZM757.525 93.197C756.069 93.197 755.268 92.4107 755.268 90.8965V76.4237C755.268 74.9095 756.069 74.1232 757.525 74.1232H778.695C780.137 74.1232 780.952 74.9095 780.952 76.4237V83.8203H771.779C768.736 83.8203 767.207 85.32 767.207 88.3339V93.197H757.525ZM758.413 76.0306C757.845 76.0306 757.423 76.4383 757.423 76.9625C757.423 77.2537 757.51 77.4866 757.743 77.7196L760.757 80.719L759.374 82.0876C758.675 82.8011 759.112 83.7183 760.102 83.8785L764.95 84.6211C765.62 84.723 766.13 84.2134 766.042 83.5436L765.3 78.6805C765.14 77.6613 764.208 77.2245 763.494 77.9671L762.126 79.3358L759.126 76.3364C758.908 76.118 758.69 76.0306 758.413 76.0306Z" fill="#3A3A3A"/>
<path d="M710.212 72.7968C710.212 72.8431 710.212 72.8431 710.212 72.8431L706.782 76.69H696.678C695.659 76.69 694.778 77.5243 694.778 78.5903V94.0706C694.778 95.0903 695.612 95.9709 696.678 95.9709H701.591C702.194 96.0636 702.796 96.0636 703.399 95.9709H712.159C713.178 95.9709 714.059 95.1366 714.059 94.0706V85.9133L717.813 81.742L717.952 81.8347V94.0243C717.952 97.2686 715.357 99.8641 712.159 99.8641H696.725C693.48 99.8641 690.885 97.2686 690.885 94.0243V78.5903C690.885 75.3923 693.48 72.7968 696.725 72.7968H710.212ZM712.668 75.9485L715.264 78.822L705.809 89.5748C705.392 90.0383 704.094 90.6408 701.869 91.3824C701.823 91.4288 701.73 91.4288 701.638 91.3824C701.452 91.3361 701.313 91.1043 701.406 90.9189C702.008 88.7406 702.565 87.3965 702.982 86.933L712.668 75.9485ZM713.92 74.4653L716.562 71.499C717.257 70.7111 718.462 70.6648 719.25 71.4063C720.038 72.1015 720.084 73.353 719.389 74.1409L716.515 77.3852L713.92 74.4653Z" fill="#3A3A3A"/>
<line x1="822.984" y1="85.7918" x2="856.398" y2="85.7918" stroke="#3A3A3A" stroke-width="2.15573"/>
</svg>
